<svg width="458" height="244" viewBox="0 0 458 244" fill="none" xmlns="http://www.w3.org/2000/svg">
<path d="M54.0227 63.7C54.656 61.2333 55.456 58.1667 56.4227 54.5C57.3893 50.8 58.4393 46.8667 59.5727 42.7C60.706 38.5 61.8227 34.45 62.9227 30.55C64.8893 31.35 66.6893 31.9667 68.3227 32.4C69.9893 32.8 71.3227 32.85 72.3227 32.55C73.3227 32.25 73.8227 31.4333 73.8227 30.1C73.8227 29.2 73.1727 28.3333 71.8727 27.5C70.606 26.6667 68.1393 25.8 64.4727 24.9C64.7727 23.7333 65.0727 22.6333 65.3727 21.6C65.6727 20.5333 65.956 19.5333 66.2227 18.6C68.5227 19.5667 70.706 20.35 72.7727 20.95C74.8393 21.55 76.5227 21.7333 77.8227 21.5C79.1227 21.2667 79.7727 20.4 79.7727 18.9C79.7727 17.8 78.9393 16.8 77.2727 15.9C75.606 15 72.4727 14.0333 67.8727 13C67.906 12.8667 67.9227 12.7667 67.9227 12.7C67.956 12.6 67.9893 12.4833 68.0227 12.35C68.8893 9.45 70.4727 7.2 72.7727 5.6C75.106 4 78.2893 3.23333 82.3227 3.3C86.456 3.3 89.6893 4.21666 92.0227 6.04999C94.356 7.85 95.8227 10.7333 96.4227 14.7C96.4893 15.2 96.556 15.7333 96.6227 16.3C96.7227 16.8333 96.806 17.4 96.8727 18C96.9393 18.5333 97.006 19.0833 97.0727 19.65C97.1727 20.2167 97.256 20.8 97.3227 21.4C97.3893 21.7333 97.4393 22.0667 97.4727 22.4C97.5393 22.7333 97.5893 23.0667 97.6227 23.4C97.6893 23.7333 97.7393 24.0833 97.7727 24.45C97.8727 25.2167 97.9727 26 98.0727 26.8C98.1727 27.6 98.2893 28.4167 98.4227 29.25C98.4893 29.75 98.556 30.2667 98.6227 30.8C98.7227 31.3 98.7893 31.8333 98.8227 32.4C98.8893 32.8 98.9393 33.2167 98.9727 33.65C99.0393 34.05 99.106 34.4667 99.1727 34.9C99.2393 35.3 99.2893 35.7167 99.3227 36.15C99.7227 39.05 100.106 42 100.473 45C100.873 48 101.256 50.95 101.623 53.85C101.989 56.75 102.323 59.5 102.623 62.1C102.956 64.7 103.256 67.0667 103.523 69.2C103.756 71.0333 103.473 72.5667 102.673 73.8C101.873 75.0667 100.723 75.7 99.2227 75.7C97.9227 75.7 96.806 75.2 95.8727 74.2C94.9727 73.2333 94.4227 71.8 94.2227 69.9C93.5893 63.9 93.0227 57.6667 92.5227 51.2C92.0227 44.7 91.4727 38.1333 90.8727 31.5C90.6727 29.2 90.256 27.6 89.6227 26.7C88.9893 25.8 87.9393 25.35 86.4727 25.35C85.1393 25.35 83.8727 25.75 82.6727 26.55C81.506 27.35 80.1893 29.2333 78.7227 32.2C75.8893 37.9333 73.0727 43.8 70.2727 49.8C67.506 55.8 64.7893 61.5667 62.1227 67.1C61.456 68.4667 60.7227 69.4667 59.9227 70.1C59.1227 70.7 58.2227 71 57.2227 71C55.7893 71 54.756 70.3167 54.1227 68.95C53.5227 67.5833 53.4893 65.8333 54.0227 63.7ZM65.6227 55.5L67.5227 48.4C71.7893 48.2333 76.0393 48.0667 80.2727 47.9C84.506 47.7333 88.5227 47.6 92.3227 47.5C93.9227 47.4333 95.2393 47.6833 96.2727 48.25C97.306 48.7833 97.8227 49.6667 97.8227 50.9C97.8227 52.2333 97.456 53.2 96.7227 53.8C96.0227 54.4 94.9893 54.7333 93.6227 54.8C88.956 55 84.3393 55.15 79.7727 55.25C75.206 55.35 70.4893 55.4333 65.6227 55.5ZM99.3227 64.9C98.4227 64.9 97.6227 64.6167 96.9227 64.05C96.256 63.4833 95.9227 62.7 95.9227 61.7C95.9227 60.7 96.2227 59.9333 96.8227 59.4C97.456 58.8667 98.2893 58.6 99.3227 58.6C99.5227 58.6 99.806 58.6 100.173 58.6C100.539 58.6 100.889 58.6 101.223 58.6V64.9C100.923 64.9333 100.606 64.95 100.273 64.95C99.9393 64.9167 99.6227 64.9 99.3227 64.9ZM60.3727 51.35C57.3727 50.4833 55.056 49.7167 53.4227 49.05C51.7893 48.3833 50.656 47.7333 50.0227 47.1C49.356 46.4333 49.0227 45.6833 49.0227 44.85C49.0227 43.25 49.6727 42.3 50.9727 42C52.2393 41.7 53.906 41.8333 55.9727 42.4C58.0393 42.9667 60.206 43.7667 62.4727 44.8L60.3727 51.35ZM63.2227 57.2C62.3893 56.9333 61.6727 56.65 61.0727 56.35C60.506 56.05 60.0727 55.7 59.7727 55.3C59.4727 54.9 59.3227 54.4 59.3227 53.8C59.3227 52.5333 59.556 51.5333 60.0227 50.8C60.4893 50.0667 61.156 49.6167 62.0227 49.45C62.9227 49.2833 64.0227 49.4333 65.3227 49.9L63.2227 57.2ZM94.6227 43.7L93.9227 36.8C95.1227 36.6667 96.106 36.6667 96.8727 36.8C97.6393 36.9333 98.206 37.3 98.5727 37.9C98.9393 38.4667 99.1227 39.3667 99.1227 40.6C99.1227 41.8 98.7393 42.5667 97.9727 42.9C97.206 43.2333 96.0893 43.5 94.6227 43.7ZM98.1727 54.5L97.8227 47.2C100.623 47.1 102.823 47.0667 104.423 47.1C106.056 47.1333 107.206 47.4333 107.873 48C108.573 48.5333 108.923 49.55 108.923 51.05C108.923 52.4167 108.189 53.3333 106.723 53.8C105.289 54.2333 102.439 54.4667 98.1727 54.5ZM127.391 70.8C126.957 70.8 126.541 70.7167 126.141 70.55C125.741 70.3833 125.357 70.1333 124.991 69.8C124.724 69.5333 124.491 69.2 124.291 68.8C124.091 68.4 123.907 67.85 123.741 67.15C123.607 66.4167 123.491 65.4167 123.391 64.15C123.291 62.8833 123.191 61.2333 123.091 59.2C123.057 58.3667 123.024 57.5667 122.991 56.8C122.957 56.0333 122.924 55.2833 122.891 54.55C122.857 53.9167 122.824 53.3 122.791 52.7C122.791 52.0667 122.774 51.45 122.741 50.85C122.707 49.9833 122.674 49.15 122.641 48.35C122.641 47.55 122.607 46.7667 122.541 46C122.541 45.7 122.524 45.4 122.491 45.1C122.491 44.8 122.491 44.5 122.491 44.2C122.491 43.8667 122.474 43.5667 122.441 43.3C122.441 42.9667 122.424 42.65 122.391 42.35C122.391 42.0167 122.374 41.7 122.341 41.4C122.341 41.0667 122.324 40.75 122.291 40.45C122.224 38.7833 122.141 37.0833 122.041 35.35C121.974 33.5833 121.891 31.7333 121.791 29.8C121.691 27.7667 121.207 26.1667 120.341 25C119.507 23.8333 118.457 22.9167 117.191 22.25C115.924 21.55 114.574 20.9333 113.141 20.4C111.741 19.8667 110.424 19.2333 109.191 18.5C107.957 17.7667 106.941 16.7667 106.141 15.5C105.374 14.2 104.991 12.4667 104.991 10.3C104.991 8.46667 105.274 6.96666 105.841 5.79999C106.407 4.59999 107.307 3.71666 108.541 3.15C109.807 2.58333 111.491 2.3 113.591 2.3C113.291 5.8 113.391 8.18333 113.891 9.45C114.424 10.6833 115.191 11.3 116.191 11.3C117.291 11.3 118.124 10.7333 118.691 9.6C119.257 8.43333 119.557 6.03333 119.591 2.4C120.491 2.4 121.424 2.4 122.391 2.4C123.357 2.4 124.291 2.4 125.191 2.4C125.091 5.36666 125.091 7.65 125.191 9.25C125.324 10.8167 125.607 11.9 126.041 12.5C126.474 13.1 127.091 13.4 127.891 13.4C128.591 13.4 129.191 13.1167 129.691 12.55C130.224 11.95 130.624 10.8667 130.891 9.3C131.157 7.73333 131.291 5.46666 131.291 2.5C135.757 2.5 139.357 2.55 142.091 2.65C144.824 2.71666 146.891 2.88333 148.291 3.15C149.724 3.38333 150.674 3.78333 151.141 4.35C151.641 4.88333 151.891 5.63333 151.891 6.6C151.891 7.63333 151.457 8.41666 150.591 8.95C149.757 9.45 148.657 9.83333 147.291 10.1C145.957 10.3333 144.524 10.5667 142.991 10.8C141.491 11 140.041 11.3167 138.641 11.75C137.274 12.15 136.124 12.7833 135.191 13.65C134.291 14.5167 133.791 15.75 133.691 17.35C133.091 26.25 132.624 33.7333 132.291 39.8C131.957 45.8333 131.674 50.7667 131.441 54.6C131.241 58.4 131.057 61.35 130.891 63.45C130.724 65.55 130.524 67.0833 130.291 68.05C130.057 68.9833 129.757 69.6333 129.391 70C129.191 70.2333 128.891 70.4333 128.491 70.6C128.124 70.7333 127.757 70.8 127.391 70.8ZM142.391 26.9C140.957 26.9 139.674 26.4167 138.541 25.45C137.441 24.4833 136.891 23.1 136.891 21.3C136.891 19.4333 137.391 17.9333 138.391 16.8C139.391 15.6667 140.957 15.1 143.091 15.1C144.757 15.1 146.107 15.65 147.141 16.75C148.174 17.8167 148.691 19.1 148.691 20.6C148.691 22.8 148.174 24.4 147.141 25.4C146.141 26.4 144.557 26.9 142.391 26.9ZM129.191 59.5L128.891 52.3C132.857 52.1333 135.907 52.0667 138.041 52.1C140.174 52.1333 141.641 52.3833 142.441 52.85C143.274 53.3167 143.691 54.1 143.691 55.2C143.691 56.5333 143.291 57.4833 142.491 58.05C141.724 58.5833 140.291 58.9333 138.191 59.1C136.124 59.2333 133.124 59.3667 129.191 59.5ZM125.191 32.3L125.091 39.9C120.791 39.8667 117.474 39.7833 115.141 39.65C112.807 39.5167 111.174 39.1667 110.241 38.6C109.341 38 108.891 37.0333 108.891 35.7C108.891 34.3333 109.407 33.4 110.441 32.9C111.507 32.3667 113.241 32.1 115.641 32.1C118.041 32.0667 121.224 32.1333 125.191 32.3ZM156.748 65.4C156.748 60.2333 156.782 55.3333 156.848 50.7C156.948 46.0667 157.048 41.2333 157.148 36.2C160.315 36.2 162.698 36.0833 164.298 35.85C165.898 35.6167 166.965 35.2333 167.498 34.7C168.032 34.1667 168.282 33.4667 168.248 32.6C168.215 31.8 167.948 31.1667 167.448 30.7C166.982 30.2333 165.965 29.9333 164.398 29.8C162.865 29.6333 160.515 29.6333 157.348 29.8C157.348 29 157.348 28.0167 157.348 26.85C157.382 25.65 157.415 24.6333 157.448 23.8C161.115 23.6333 163.448 23.2833 164.448 22.75C165.448 22.1833 165.948 21.3333 165.948 20.2C165.948 19 165.432 18.1167 164.398 17.55C163.365 16.9833 161.048 16.7333 157.448 16.8C157.448 16.2333 157.465 15.5667 157.498 14.8C157.565 14.0333 157.615 13.1333 157.648 12.1C157.748 9.3 158.582 7.38333 160.148 6.35C161.715 5.28333 163.815 4.63333 166.448 4.4C168.448 4.23333 170.448 4.06666 172.448 3.9C174.448 3.73333 176.432 3.6 178.398 3.49999C180.365 3.36666 182.282 3.26666 184.148 3.2C186.048 3.13333 187.882 3.09999 189.648 3.09999C192.315 3.09999 194.215 3.48333 195.348 4.24999C196.482 5.01666 197.048 6.23333 197.048 7.9C197.048 8.96666 196.882 9.85 196.548 10.55C196.215 11.2167 195.698 11.7167 194.998 12.05C194.332 12.35 193.482 12.5 192.448 12.5C192.348 12.5 192.215 12.5 192.048 12.5C191.915 12.5 191.765 12.5 191.598 12.5C191.432 12.5 191.265 12.5 191.098 12.5C190.665 12.4667 190.232 12.45 189.798 12.45C189.398 12.45 189.048 12.4333 188.748 12.4C187.748 12.3333 186.682 12.2833 185.548 12.25C184.448 12.2167 183.365 12.1833 182.298 12.15C182.065 12.15 181.832 12.15 181.598 12.15C181.365 12.1167 181.115 12.1 180.848 12.1C180.615 12.1 180.382 12.1 180.148 12.1C179.915 12.0667 179.682 12.05 179.448 12.05C179.248 12.05 179.048 12.05 178.848 12.05C178.415 12.0167 177.998 12 177.598 12C177.232 12 176.882 12 176.548 12C175.348 12 174.548 12.2667 174.148 12.8C173.748 13.3333 173.615 14.5333 173.748 16.4C173.948 19.1333 174.198 21.6167 174.498 23.85C174.798 26.0833 175.148 28.5333 175.548 31.2C175.748 32.5 176.048 33.3833 176.448 33.85C176.882 34.3167 177.615 34.5 178.648 34.4C180.115 34.2333 181.615 34.05 183.148 33.85C184.715 33.6167 186.048 33.4333 187.148 33.3C188.448 33.1333 189.415 33.4833 190.048 34.35C190.715 35.2167 191.048 36.2333 191.048 37.4C191.048 38.5 190.732 39.55 190.098 40.55C189.465 41.5167 188.515 42.0333 187.248 42.1C186.515 42.1333 185.748 42.1667 184.948 42.2C184.148 42.2333 183.315 42.2667 182.448 42.3C182.082 42.3333 181.715 42.35 181.348 42.35C181.015 42.35 180.665 42.3667 180.298 42.4C179.965 42.4 179.615 42.4167 179.248 42.45C178.915 42.45 178.582 42.45 178.248 42.45C177.615 42.4833 176.982 42.5167 176.348 42.55C175.748 42.55 175.132 42.5667 174.498 42.6C174.298 42.6 174.082 42.6 173.848 42.6C173.648 42.6 173.432 42.6167 173.198 42.65C172.998 42.65 172.782 42.65 172.548 42.65C172.348 42.65 172.148 42.6667 171.948 42.7C171.748 42.7 171.532 42.7 171.298 42.7C171.098 42.7 170.898 42.7167 170.698 42.75C170.165 42.7833 169.632 42.8167 169.098 42.85C168.598 42.8833 168.115 42.9 167.648 42.9C166.915 42.9333 166.315 43.2167 165.848 43.75C165.415 44.2833 165.315 45.2333 165.548 46.6C166.015 49.0333 166.548 51.45 167.148 53.85C167.748 56.2167 168.415 58.6333 169.148 61.1C169.548 62.4333 170.032 63.3 170.598 63.7C171.165 64.0667 171.948 64.2 172.948 64.1C176.315 63.7333 179.665 63.3333 182.998 62.9C186.365 62.4667 189.815 62.1 193.348 61.8C194.882 61.6667 196.015 62.1333 196.748 63.2C197.515 64.2667 197.898 65.4333 197.898 66.7C197.898 67.8333 197.582 68.8833 196.948 69.85C196.348 70.8167 195.415 71.3333 194.148 71.4C189.015 71.6 183.848 71.6833 178.648 71.65C173.482 71.6167 168.315 71.6 163.148 71.6C160.848 71.6 159.198 71.05 158.198 69.95C157.232 68.85 156.748 67.3333 156.748 65.4ZM170.348 68.3L176.848 68.4C176.982 72.1667 176.965 74.9667 176.798 76.8C176.665 78.6667 176.332 79.9 175.798 80.5C175.298 81.1 174.582 81.4 173.648 81.4C172.682 81.4 171.948 81.0833 171.448 80.45C170.982 79.85 170.665 78.6167 170.498 76.75C170.365 74.8833 170.315 72.0667 170.348 68.3ZM185.648 79.9C185.515 78.1 185.398 76.2667 185.298 74.4C185.198 72.5667 185.115 70.7333 185.048 68.9C185.015 66.8 185.232 65.3667 185.698 64.6C186.198 63.8 187.048 63.4 188.248 63.4C189.315 63.4 190.098 63.7667 190.598 64.5C191.132 65.2 191.448 66.4 191.548 68.1C191.648 70 191.732 71.8833 191.798 73.75C191.865 75.6167 191.915 77.5 191.948 79.4C192.015 81.1 191.765 82.3333 191.198 83.1C190.665 83.9 189.915 84.3 188.948 84.3C187.948 84.3 187.182 83.9667 186.648 83.3C186.148 82.6667 185.815 81.5333 185.648 79.9ZM187.848 57.3C186.082 57.3 184.715 56.8167 183.748 55.85C182.815 54.8833 182.348 53.5 182.348 51.7C182.348 49.9 182.798 48.5833 183.698 47.75C184.632 46.9167 185.915 46.5 187.548 46.5C189.315 46.5 190.682 46.95 191.648 47.85C192.648 48.75 193.148 49.9333 193.148 51.4C193.148 53.4 192.648 54.8833 191.648 55.85C190.682 56.8167 189.415 57.3 187.848 57.3ZM181.348 6.7C181.348 6.03333 181.665 5.45 182.298 4.95C182.932 4.45 183.648 4.2 184.448 4.2C185.315 4.2 186.115 4.3 186.848 4.49999C187.615 4.66666 188.015 5.13333 188.048 5.9C188.115 6.23333 188.165 6.58333 188.198 6.95C188.232 7.28333 188.248 7.6 188.248 7.9C188.248 8.63333 187.948 9.26666 187.348 9.8C186.748 10.3333 186.015 10.6 185.148 10.6C184.348 10.6 183.565 10.4667 182.798 10.2C182.065 9.9 181.648 9.33333 181.548 8.5C181.515 8.2 181.465 7.9 181.398 7.6C181.365 7.3 181.348 7 181.348 6.7ZM167.748 9.99999L166.848 16.4C165.648 16.2333 164.715 15.9333 164.048 15.5C163.382 15.0333 163.048 14.2333 163.048 13.1C163.048 11.7 163.465 10.8333 164.298 10.5C165.165 10.1667 166.315 9.99999 167.748 9.99999ZM215.931 75.4C212.698 75.4 210.448 74.7667 209.181 73.5C207.915 72.2333 207.281 70.1833 207.281 67.35C207.281 66.2167 207.381 64.3 207.581 61.6C207.815 58.9 208.115 55.7 208.481 52C208.848 48.2667 209.248 44.3167 209.681 40.15C210.115 35.95 210.565 31.7833 211.031 27.65C211.498 23.5167 211.931 19.6667 212.331 16.1C212.765 12.5333 213.131 9.53333 213.431 7.1C213.631 5.4 214.015 4.13333 214.581 3.3C215.181 2.43333 216.031 2 217.131 2C217.965 2 218.631 2.21666 219.131 2.65C219.631 3.05 219.998 3.68333 220.231 4.55C220.465 5.38333 220.598 6.43333 220.631 7.69999C220.698 9.6 220.765 11.8333 220.831 14.4C220.898 16.9667 220.965 19.6333 221.031 22.4C221.031 22.9 221.031 23.4 221.031 23.9C221.031 24.3667 221.048 24.85 221.081 25.35C221.081 25.8833 221.081 26.4333 221.081 27C221.081 27.5333 221.098 28.0833 221.131 28.65C221.165 29.3833 221.181 30.1 221.181 30.8C221.181 31.5 221.198 32.2 221.231 32.9C221.231 33.2333 221.231 33.5667 221.231 33.9C221.265 34.2333 221.281 34.5667 221.281 34.9C221.281 35.2 221.281 35.5167 221.281 35.85C221.315 36.2167 221.331 36.5833 221.331 36.95C221.331 37.2833 221.331 37.6333 221.331 38C221.365 38.3333 221.381 38.6667 221.381 39C221.448 40.2333 221.498 41.3833 221.531 42.45C221.565 43.5167 221.598 44.4667 221.631 45.3C221.731 47.4 222.131 49 222.831 50.1C223.531 51.2 224.631 52.1 226.131 52.8C227.331 53.3667 228.565 53.95 229.831 54.55C231.098 55.1167 232.381 55.7 233.681 56.3C234.981 56.9 236.281 57.5 237.581 58.1C238.915 58.7 240.231 59.3 241.531 59.9C243.198 60.6667 244.565 61.45 245.631 62.25C246.698 63.05 247.481 63.9333 247.981 64.9C248.481 65.8667 248.731 66.9667 248.731 68.2C248.731 69.9 248.165 71.3 247.031 72.4C245.898 73.5 244.198 74.1333 241.931 74.3C241.098 74.3333 240.265 74.3833 239.431 74.45C238.631 74.55 237.831 74.6333 237.031 74.7C237.331 71.9333 237.431 69.8 237.331 68.3C237.231 66.7667 236.948 65.7 236.481 65.1C236.015 64.5 235.398 64.2 234.631 64.2C233.765 64.2 233.098 64.5167 232.631 65.15C232.198 65.7833 231.898 66.8833 231.731 68.45C231.598 70.0167 231.531 72.2 231.531 75C230.498 75.0333 229.431 75.0667 228.331 75.1C227.265 75.1667 226.198 75.2 225.131 75.2C225.131 71.1333 224.981 68.1 224.681 66.1C224.415 64.0667 224.015 62.7333 223.481 62.1C222.948 61.4667 222.298 61.1333 221.531 61.1C220.631 61.1 219.915 61.4667 219.381 62.2C218.848 62.9333 218.515 64.3333 218.381 66.4C218.281 68.4333 218.431 71.4 218.831 75.3C218.331 75.3333 217.848 75.35 217.381 75.35C216.915 75.3833 216.431 75.4 215.931 75.4ZM212.631 48.4C209.198 48.4667 206.548 48.45 204.681 48.35C202.815 48.2167 201.515 47.8833 200.781 47.35C200.081 46.7833 199.731 45.9 199.731 44.7C199.731 42.9 200.665 41.7833 202.531 41.35C204.398 40.8833 207.931 40.8333 213.131 41.2L212.631 48.4ZM217.531 21.8V14.2C221.898 14.2333 225.215 14.3333 227.481 14.5C229.748 14.6667 231.281 15.0167 232.081 15.55C232.915 16.0833 233.331 16.9 233.331 18C233.331 19.2333 232.898 20.1333 232.031 20.7C231.198 21.2333 229.631 21.5667 227.331 21.7C225.065 21.8333 221.798 21.8667 217.531 21.8ZM218.431 29.3L218.331 22.9C218.831 22.9 219.248 23 219.581 23.2C219.948 23.4 220.215 23.75 220.381 24.25C220.548 24.7167 220.631 25.3667 220.631 26.2C220.631 27.4 220.448 28.2167 220.081 28.65C219.748 29.0833 219.198 29.3 218.431 29.3ZM244.231 68.6L238.331 67.6C238.331 66.6667 238.431 65.9 238.631 65.3C238.831 64.6667 239.131 64.2 239.531 63.9C239.965 63.6 240.498 63.4333 241.131 63.4C242.298 63.3 243.081 63.45 243.481 63.85C243.915 64.2167 244.148 64.8 244.181 65.6C244.215 66.4 244.231 67.4 244.231 68.6ZM279.275 47.7C279.042 47.7 278.808 47.7 278.575 47.7C278.375 47.7 278.142 47.7 277.875 47.7C276.975 47.7 276.292 47.45 275.825 46.95C275.392 46.45 275.175 45.9333 275.175 45.4C275.175 44.8333 275.392 44.3333 275.825 43.9C276.292 43.4333 276.942 43.2 277.775 43.2C278.075 43.2 278.392 43.2 278.725 43.2C279.058 43.2 279.375 43.2 279.675 43.2C280.475 43.2 281.058 43.4 281.425 43.8C281.792 44.1667 281.975 44.6333 281.975 45.2C281.975 45.8 281.742 46.3667 281.275 46.9C280.808 47.4333 280.142 47.7 279.275 47.7ZM275.975 31.5C275.775 31.5 275.575 31.5 275.375 31.5C275.175 31.5 274.975 31.5 274.775 31.5C273.642 31.5 272.892 31.1833 272.525 30.55C272.158 29.8833 271.975 29.1333 271.975 28.3C271.975 27.6333 272.175 27.0333 272.575 26.5C272.975 25.9667 273.542 25.7 274.275 25.7C274.575 25.7 274.892 25.7 275.225 25.7C275.558 25.7 275.875 25.7 276.175 25.7C276.975 25.7 277.625 25.9833 278.125 26.55C278.625 27.0833 278.875 27.8333 278.875 28.8C278.875 29.7 278.708 30.3833 278.375 30.85C278.075 31.2833 277.275 31.5 275.975 31.5ZM260.175 19.1C261.775 19.1 262.975 19.5333 263.775 20.4C264.575 21.2333 264.975 22.5667 264.975 24.4C264.975 25.8 264.592 26.8667 263.825 27.6C263.058 28.3333 261.942 28.7 260.475 28.7C258.775 28.7 257.475 28.2167 256.575 27.25C255.708 26.25 255.275 24.9 255.275 23.2C255.275 21.8 255.725 20.7667 256.625 20.1C257.558 19.4333 258.742 19.1 260.175 19.1ZM252.175 67.5C252.175 66.3333 252.458 65.4833 253.025 64.95C253.625 64.3833 254.542 63.9 255.775 63.5C256.542 63.2333 257.342 63.0167 258.175 62.85C259.042 62.65 259.942 62.4 260.875 62.1C262.375 61.6 263.458 61.0333 264.125 60.4C264.792 59.7667 265.242 58.8333 265.475 57.6C265.542 57.3 265.592 57.0167 265.625 56.75C265.692 56.4833 265.742 56.2 265.775 55.9C269.542 56.6333 272.092 56.75 273.425 56.25C274.758 55.7167 275.425 54.8 275.425 53.5C275.458 52.5333 274.892 51.8 273.725 51.3C272.592 50.8 270.308 50.4 266.875 50.1C267.075 49.1 267.275 48.1167 267.475 47.15C267.708 46.1833 267.875 45.2 267.975 44.2C270.208 44.3333 271.975 44.3333 273.275 44.2C274.575 44.0333 275.492 43.7333 276.025 43.3C276.592 42.8667 276.875 42.25 276.875 41.45C276.875 40.4167 276.308 39.6333 275.175 39.1C274.075 38.5333 272.042 38.1 269.075 37.8C269.708 34.2 270.308 30.5833 270.875 26.95C271.442 23.2833 271.975 19.6333 272.475 16C272.675 14.5 272.558 13.55 272.125 13.15C271.692 12.75 270.875 12.6 269.675 12.7C267.908 12.7333 266.458 12.8167 265.325 12.95C264.225 13.0833 262.875 13.2 261.275 13.3C259.442 13.3333 257.942 13.1333 256.775 12.7C255.642 12.2333 255.075 11.2 255.075 9.6C255.075 8.23333 255.625 7.2 256.725 6.5C257.858 5.8 259.642 5.33333 262.075 5.1C265.675 4.73333 269.908 4.33333 274.775 3.9C279.642 3.43333 284.242 3.06667 288.575 2.8C290.742 2.63333 292.308 2.76666 293.275 3.2C294.275 3.6 294.775 4.5 294.775 5.9C294.775 7.1 294.342 8.04999 293.475 8.75C292.608 9.45 291.475 10.0667 290.075 10.6C288.975 11.0333 287.792 11.4333 286.525 11.8C285.292 12.1667 283.842 12.6667 282.175 13.3C280.975 13.7333 280.192 14.25 279.825 14.85C279.492 15.4167 279.375 16.2 279.475 17.2C280.075 24.4 280.792 31.6 281.625 38.8C282.458 46 283.375 53.2 284.375 60.4C284.542 61.5 284.858 62.3333 285.325 62.9C285.825 63.4333 286.575 63.8333 287.575 64.1C288.442 64.3 289.208 64.45 289.875 64.55C290.542 64.65 291.275 64.8 292.075 65C293.042 65.2 293.908 65.5333 294.675 66C295.475 66.4333 295.875 67.2333 295.875 68.4C295.875 69.4333 295.608 70.2167 295.075 70.75C294.542 71.25 293.808 71.5833 292.875 71.75C291.942 71.9167 290.875 72 289.675 72C289.242 72 288.542 72 287.575 72C286.642 71.9667 285.558 71.9333 284.325 71.9C283.958 71.9 283.575 71.8833 283.175 71.85C282.775 71.8167 282.358 71.8 281.925 71.8C281.525 71.8 281.108 71.8 280.675 71.8C280.242 71.8 279.775 71.8 279.275 71.8C278.808 71.7667 278.342 71.75 277.875 71.75C277.408 71.7167 276.925 71.7 276.425 71.7C275.625 71.6667 274.808 71.65 273.975 71.65C273.175 71.65 272.375 71.6333 271.575 71.6C271.042 71.5667 270.492 71.55 269.925 71.55C269.392 71.5167 268.858 71.5 268.325 71.5C267.825 71.4667 267.308 71.45 266.775 71.45C266.408 71.45 266.025 71.45 265.625 71.45C265.258 71.4167 264.892 71.4 264.525 71.4C264.158 71.3667 263.808 71.35 263.475 71.35C262.308 71.2833 261.258 71.2333 260.325 71.2C259.425 71.1667 258.708 71.1333 258.175 71.1C256.375 71 254.925 70.7167 253.825 70.25C252.725 69.75 252.175 68.8333 252.175 67.5ZM306.238 65.4C306.138 61.1667 306.022 56.3667 305.888 51C305.788 45.6333 305.688 40.2667 305.588 34.9C305.588 34.5 305.588 34.1167 305.588 33.75C305.588 33.3833 305.572 33.0167 305.538 32.65C305.538 32.25 305.538 31.8667 305.538 31.5C305.538 31.0667 305.538 30.6333 305.538 30.2C305.538 29.7333 305.538 29.2833 305.538 28.85C305.538 28.4167 305.522 27.9833 305.488 27.55C305.455 26.4833 305.422 25.4333 305.388 24.4C305.388 23.3667 305.388 22.35 305.388 21.35C305.388 20.8833 305.388 20.4167 305.388 19.95C305.388 19.4833 305.388 19.0167 305.388 18.55C305.355 18.05 305.338 17.55 305.338 17.05C305.338 16.55 305.338 16.05 305.338 15.55C305.338 14.6833 305.338 13.85 305.338 13.05C305.338 12.2167 305.338 11.4333 305.338 10.7C305.338 8 306.105 6.01667 307.638 4.75C309.205 3.48333 311.438 2.73333 314.338 2.5C315.705 2.36666 317.472 2.23333 319.638 2.09999C321.838 1.93333 324.138 1.78333 326.538 1.65C328.938 1.51666 331.172 1.41666 333.238 1.35C335.305 1.24999 336.905 1.19999 338.038 1.19999C340.505 1.19999 342.288 1.74999 343.388 2.84999C344.488 3.91666 345.038 5.26666 345.038 6.9C345.038 8.23333 344.788 9.35 344.288 10.25C343.788 11.15 342.805 12.0333 341.338 12.9C339.905 13.7667 337.772 14.8333 334.938 16.1C334.538 14.6667 334.122 13.55 333.688 12.75C333.288 11.95 332.855 11.3833 332.388 11.05C331.922 10.6833 331.438 10.5 330.938 10.5C328.938 10.5 327.988 11.3 328.088 12.9C328.222 14.4667 328.672 16.3333 329.438 18.5C328.805 18.8333 328.038 19.2167 327.138 19.65C326.272 20.05 325.405 20.4 324.538 20.7C323.505 17.2667 322.555 14.9 321.688 13.6C320.855 12.3 319.972 11.65 319.038 11.65C317.572 11.65 316.705 12.2167 316.438 13.35C316.205 14.45 316.305 15.9 316.738 17.7C317.172 19.4667 317.705 21.3667 318.338 23.4C317.838 23.6 317.322 23.8 316.788 24C316.288 24.2 315.805 24.4 315.338 24.6C314.438 25 313.788 25.5667 313.388 26.3C312.988 27.0333 312.905 27.9333 313.138 29C313.438 30.2333 313.755 31.45 314.088 32.65C314.455 33.8167 314.838 35.0333 315.238 36.3C315.538 37.1 316.055 37.65 316.788 37.95C317.522 38.25 318.405 38.3333 319.438 38.2C320.238 38.0333 321.072 37.8833 321.938 37.75C322.838 37.5833 323.772 37.4333 324.738 37.3C326.105 37.1333 327.138 37.5167 327.838 38.45C328.538 39.35 328.888 40.35 328.888 41.45C328.888 42.2833 328.672 43.0333 328.238 43.7C327.838 44.3667 327.205 44.8333 326.338 45.1C326.205 45.1333 326.005 45.1833 325.738 45.25C325.505 45.3167 325.238 45.3833 324.938 45.45C324.705 45.4833 324.472 45.5333 324.238 45.6C324.005 45.6333 323.772 45.6833 323.538 45.75C323.338 45.7833 323.172 45.8167 323.038 45.85C322.905 45.8833 322.722 45.9333 322.488 46C322.155 46.0667 321.855 46.1333 321.588 46.2C321.322 46.2333 321.072 46.2833 320.838 46.35C320.705 46.3833 320.572 46.4167 320.438 46.45C320.338 46.45 320.255 46.45 320.188 46.45C320.122 46.45 320.022 46.4833 319.888 46.55C319.755 46.5833 319.638 46.6167 319.538 46.65C319.438 46.65 319.322 46.6667 319.188 46.7C319.088 46.7333 318.972 46.7667 318.838 46.8C318.605 46.8333 318.388 46.8833 318.188 46.95C317.988 46.9833 317.772 47.0333 317.538 47.1C316.205 47.4333 315.288 47.8833 314.788 48.45C314.288 49.0167 314.138 50 314.338 51.4C314.638 53.1 315.005 54.8 315.438 56.5C315.872 58.1667 316.305 59.8 316.738 61.4C316.938 62.1 317.288 62.5833 317.788 62.85C318.322 63.0833 319.272 63.1 320.638 62.9C323.705 62.5 326.855 62.1333 330.088 61.8C333.322 61.4333 336.438 61.1 339.438 60.8C341.038 60.6333 342.222 61.05 342.988 62.05C343.788 63.0167 344.188 64.1 344.188 65.3C344.188 66.4333 343.855 67.5 343.188 68.5C342.555 69.4667 341.605 70 340.338 70.1C335.605 70.4333 330.938 70.7333 326.338 71C321.772 71.2333 317.205 71.4333 312.638 71.6C310.338 71.7 308.705 71.1833 307.738 70.05C306.805 68.8833 306.305 67.3333 306.238 65.4ZM317.838 68.2L324.538 67.5C324.872 72.5667 324.988 76.3333 324.888 78.8C324.822 81.3 324.522 82.9333 323.988 83.7C323.488 84.5 322.738 84.9 321.738 84.9C320.705 84.9 319.955 84.5167 319.488 83.75C319.022 82.9833 318.688 81.4 318.488 79C318.322 76.6333 318.105 73.0333 317.838 68.2ZM331.138 72.9C330.905 70.3 330.688 67.6667 330.488 65C330.288 62.3333 330.105 59.4333 329.938 56.3C329.838 54.7 330.038 53.4667 330.538 52.6C331.072 51.7333 331.905 51.3 333.038 51.3C334.305 51.3 335.172 51.8167 335.638 52.85C336.105 53.85 336.438 55.4333 336.638 57.6C336.905 60.0333 337.105 62.4833 337.238 64.95C337.405 67.4167 337.538 69.9 337.638 72.4C337.738 74.6 337.522 76.2 336.988 77.2C336.488 78.2 335.738 78.7 334.738 78.7C333.705 78.7 332.905 78.2667 332.338 77.4C331.805 76.5333 331.405 75.0333 331.138 72.9ZM337.038 43.5C335.338 43.5 334.088 43.1167 333.288 42.35C332.522 41.5833 332.138 40.4 332.138 38.8C332.138 37.5 332.538 36.4167 333.338 35.55C334.172 34.65 335.338 34.2 336.838 34.2C338.338 34.2 339.472 34.6167 340.238 35.45C341.038 36.2833 341.438 37.2333 341.438 38.3C341.438 40.2 341.022 41.55 340.188 42.35C339.355 43.1167 338.305 43.5 337.038 43.5ZM320.238 5C320.238 4.5 320.422 4.09999 320.788 3.8C321.188 3.5 321.705 3.33333 322.338 3.3C323.105 3.23333 323.688 3.3 324.088 3.49999C324.488 3.66666 324.722 3.99999 324.788 4.49999C324.755 4.7 324.738 4.93333 324.738 5.2C324.738 5.46666 324.738 5.7 324.738 5.9C324.738 6.43333 324.588 6.85 324.288 7.15C323.988 7.41667 323.438 7.6 322.638 7.69999C321.938 7.8 321.405 7.73333 321.038 7.5C320.672 7.23333 320.438 6.8 320.338 6.2C320.305 6 320.272 5.8 320.238 5.6C320.238 5.4 320.238 5.2 320.238 5ZM310.738 12.1L310.238 16.1C309.305 15.9333 308.638 15.6833 308.238 15.35C307.872 14.9833 307.738 14.4333 307.838 13.7C307.938 12.9333 308.238 12.4333 308.738 12.2C309.272 11.9667 309.938 11.9333 310.738 12.1ZM354.071 68C353.571 63.4333 353.121 58.4333 352.721 53C352.354 47.5333 352.071 42.0833 351.871 36.65C351.771 33.9833 351.754 31.4 351.821 28.9C351.888 26.4 352.038 24.2 352.271 22.3C354.971 23.1 357.054 23.4667 358.521 23.4C359.988 23.3 360.938 22.7333 361.371 21.7C361.871 20.5 361.571 19.35 360.471 18.25C359.404 17.1167 357.071 15.9333 353.471 14.7C354.071 13.2333 354.871 11.7333 355.871 10.2C356.904 8.66666 357.971 7.43333 359.071 6.5C361.071 9.23333 362.688 10.9667 363.921 11.7C365.188 12.4 366.371 12.3333 367.471 11.5C368.538 10.7333 368.821 9.45 368.321 7.65C367.821 5.81666 366.871 4 365.471 2.2C366.838 1.6 368.688 1.11667 371.021 0.749997C373.354 0.383329 375.371 0.199996 377.071 0.199996C381.704 0.199996 385.738 0.699995 389.171 1.69999C392.604 2.66666 395.454 4.1 397.721 6C399.988 7.86666 401.671 10.1333 402.771 12.8C403.904 15.4333 404.471 18.4333 404.471 21.8C404.471 25.5 403.738 28.75 402.271 31.55C400.804 34.35 398.771 36.55 396.171 38.15C393.571 39.7167 390.571 40.5 387.171 40.5C384.304 40.5 381.888 40 379.921 39C377.988 37.9667 376.521 36.55 375.521 34.75C374.554 32.95 374.071 30.8667 374.071 28.5C374.071 25.1333 375.071 22.45 377.071 20.45C379.071 18.4167 381.571 17.4 384.571 17.4C387.004 17.4 388.921 18 390.321 19.2C391.754 20.4 392.471 21.7833 392.471 23.35C392.471 24.25 392.238 24.9833 391.771 25.55C391.338 26.0833 390.671 26.35 389.771 26.35C389.171 26.35 388.704 26.2333 388.371 26C388.071 25.7333 387.788 25.4333 387.521 25.1C387.288 24.7333 386.971 24.4333 386.571 24.2C386.171 23.9333 385.571 23.8 384.771 23.8C383.738 23.8 382.954 24.2 382.421 25C381.921 25.8 381.671 26.7333 381.671 27.8C381.671 29.5333 382.221 30.9833 383.321 32.15C384.421 33.3167 385.838 33.9 387.571 33.9C390.471 33.9 392.754 32.8333 394.421 30.7C396.121 28.5333 396.971 25.7333 396.971 22.3C396.971 18.4333 395.921 15.3 393.821 12.9C391.754 10.5 388.838 9.3 385.071 9.3C382.071 9.3 379.388 10.0667 377.021 11.6C374.688 13.1 372.704 15.3 371.071 18.2C369.471 21.1 368.271 24.6 367.471 28.7C366.804 32.3 366.321 35.1667 366.021 37.3C365.754 39.4 365.671 41.0167 365.771 42.15C365.904 43.2833 366.204 44.1333 366.671 44.7C367.138 45.2667 367.771 45.8 368.571 46.3C369.171 46.6333 369.888 47.0333 370.721 47.5C371.554 47.9333 372.471 48.4 373.471 48.9C373.838 49.0333 374.204 49.2 374.571 49.4C374.971 49.6 375.371 49.7833 375.771 49.95C376.238 50.15 376.704 50.3667 377.171 50.6C377.671 50.8333 378.171 51.0667 378.671 51.3C379.071 51.4667 379.454 51.65 379.821 51.85C380.221 52.0167 380.604 52.1833 380.971 52.35C381.404 52.55 381.804 52.75 382.171 52.95C382.538 53.15 382.904 53.3333 383.271 53.5C383.571 53.6333 383.854 53.7667 384.121 53.9C384.421 54.0333 384.704 54.1667 384.971 54.3C385.271 54.4333 385.571 54.5667 385.871 54.7C389.671 56.5333 392.788 58.0667 395.221 59.3C397.654 60.5333 399.538 61.65 400.871 62.65C402.204 63.6167 403.138 64.6 403.671 65.6C404.204 66.5667 404.471 67.7 404.471 69C404.471 70.1333 404.071 71.15 403.271 72.05C402.471 72.95 401.338 73.4 399.871 73.4C399.238 73.4 398.521 73.2833 397.721 73.05C396.954 72.85 395.921 72.4167 394.621 71.75C393.354 71.0833 391.654 70.1 389.521 68.8C387.388 67.5 384.654 65.7667 381.321 63.6C378.021 61.4333 373.938 58.7333 369.071 55.5C367.271 54.3 365.871 53.8667 364.871 54.2C363.904 54.5 363.271 55.4333 362.971 57C362.538 59.1 362.221 61.25 362.021 63.45C361.821 65.6167 361.571 67.4 361.271 68.8C360.938 70.2333 360.521 71.3333 360.021 72.1C359.521 72.8333 358.738 73.2 357.671 73.2C356.471 73.2 355.621 72.7667 355.121 71.9C354.621 71.0333 354.271 69.7333 354.071 68ZM358.571 65.4C357.671 65.4 356.971 65.1833 356.471 64.75C356.004 64.2833 355.771 63.4 355.771 62.1C355.771 61 355.971 60.25 356.371 59.85C356.804 59.45 357.471 59.3 358.371 59.4L358.571 65.4ZM355.571 49.6C354.971 49.5333 354.488 49.3333 354.121 49C353.754 48.6667 353.571 47.9333 353.571 46.8C353.571 45.5333 353.754 44.7167 354.121 44.35C354.521 43.9833 355.238 43.8333 356.271 43.9L355.571 49.6ZM391.771 53.2C390.171 53.2 388.904 52.7833 387.971 51.95C387.038 51.1167 386.571 50 386.571 48.6C386.571 46.7 386.988 45.3 387.821 44.4C388.654 43.4667 389.871 43 391.471 43C393.238 43 394.571 43.4167 395.471 44.25C396.404 45.05 396.871 46.3 396.871 48C396.871 49.6333 396.438 50.9167 395.571 51.85C394.738 52.75 393.471 53.2 391.771 53.2ZM37.0245 177.712C36.4272 183.344 36.0645 187.504 35.9365 190.192C35.8085 192.88 35.8512 194.693 36.0645 195.632C36.2778 196.571 36.5978 197.253 37.0245 197.68C37.5365 198.192 38.1338 198.512 38.8165 198.64C39.4992 198.768 40.4805 198.832 41.7605 198.832C44.9178 198.832 47.6485 198.341 49.9525 197.36C52.2992 196.336 54.2405 194.885 55.7765 193.008C57.3125 191.088 58.4432 188.763 59.1685 186.032C59.8938 183.301 60.2352 180.229 60.1925 176.816C60.1498 170.587 58.7632 165.659 56.0325 162.032C53.3018 158.405 49.3978 156.592 44.3205 156.592C43.4245 156.592 42.6778 156.677 42.0805 156.848C41.5258 157.019 40.9925 157.36 40.4805 157.872C40.1818 158.171 39.9045 158.576 39.6485 159.088C39.4352 159.557 39.2218 160.411 39.0085 161.648C38.7952 162.885 38.5178 164.763 38.1765 167.28C37.8778 169.797 37.4938 173.275 37.0245 177.712ZM11.6805 230.832C11.5952 223.109 11.6165 215.067 11.7445 206.704C11.8725 198.299 12.0645 190.171 12.3205 182.32C12.6192 174.427 12.9605 167.387 13.3445 161.2C13.6432 156.891 14.3045 153.755 15.3285 151.792C16.3525 149.829 18.1018 148.571 20.5765 148.016C23.0512 147.461 26.5712 147.163 31.1365 147.12C35.8298 147.035 39.8832 147.141 43.2965 147.44C46.7098 147.696 49.6325 148.144 52.0645 148.784C54.5392 149.381 56.6512 150.171 58.4005 151.152C60.1498 152.091 61.6858 153.221 63.0085 154.544C65.5685 157.104 67.4672 160.24 68.7045 163.952C69.9418 167.621 70.5605 171.867 70.5605 176.688C70.5605 182.235 69.8778 186.821 68.5125 190.448C67.1472 194.032 65.3552 196.955 63.1365 199.216C60.7898 201.563 58.4005 203.312 55.9685 204.464C53.5365 205.616 50.7845 206.405 47.7125 206.832C44.6405 207.259 40.9498 207.579 36.6405 207.792C33.2698 207.92 30.6032 208.219 28.6405 208.688C26.6778 209.157 25.2698 209.968 24.4165 211.12C23.6058 212.229 23.2005 213.851 23.2005 215.984C23.2005 218.928 23.3285 221.787 23.5845 224.56C23.8405 227.333 23.9685 229.851 23.9685 232.112C23.9685 234.459 23.5418 236.421 22.6885 238C21.8778 239.536 20.2565 240.304 17.8245 240.304C15.6058 240.304 14.0272 239.536 13.0885 238C12.1498 236.507 11.6805 234.117 11.6805 230.832ZM59.8085 195.888C60.4485 196.315 60.7472 196.827 60.7045 197.424C60.6618 198.021 60.4485 198.619 60.0645 199.216C59.6805 199.771 59.1472 200.197 58.4645 200.496C57.7818 200.752 57.1205 200.752 56.4805 200.496C56.3098 200.411 56.1392 200.325 55.9685 200.24C55.8405 200.155 55.6698 200.027 55.4565 199.856C55.0298 199.387 54.8165 198.896 54.8165 198.384C54.8592 197.829 55.0725 197.296 55.4565 196.784C55.9258 196.187 56.4805 195.717 57.1205 195.376C57.8032 195.035 58.4005 195.035 58.9125 195.376C59.0405 195.419 59.1898 195.504 59.3605 195.632C59.5312 195.717 59.6805 195.803 59.8085 195.888ZM63.1365 161.072C63.7765 160.859 64.3738 160.901 64.9285 161.2C65.5258 161.456 66.0805 162.267 66.5925 163.632C67.2325 165.083 67.4245 166.128 67.1685 166.768C66.9125 167.365 66.5498 167.728 66.0805 167.856C65.9098 167.899 65.7392 167.963 65.5685 168.048C65.4405 168.091 65.2698 168.155 65.0565 168.24C64.3738 168.453 63.5632 168.453 62.6245 168.24C61.6858 168.027 60.9818 167.344 60.5125 166.192C60.0432 164.997 60.0005 163.995 60.3845 163.184C60.8112 162.373 61.3018 161.84 61.8565 161.584C62.0698 161.499 62.2832 161.413 62.4965 161.328C62.7525 161.2 62.9658 161.115 63.1365 161.072ZM31.6485 215.344C34.8058 215.728 37.1312 216.283 38.6245 217.008C40.1178 217.733 40.8645 218.885 40.8645 220.464C40.8645 222.427 39.8832 223.643 37.9205 224.112C36.0005 224.581 33.5258 224.731 30.4965 224.56C26.9125 224.304 23.3498 223.984 19.8085 223.6C16.2672 223.216 12.7045 222.768 9.1205 222.256C6.3045 221.872 4.23517 221.339 2.9125 220.656C1.58983 219.973 0.9285 218.843 0.9285 217.264C0.9285 215.515 1.7605 214.427 3.4245 214C5.13117 213.573 7.41383 213.424 10.2725 213.552C13.8565 213.723 17.4192 213.957 20.9605 214.256C24.5018 214.512 28.0645 214.875 31.6485 215.344ZM26.0165 168.88C27.4245 168.88 28.5978 168.432 29.5365 167.536C30.5178 166.597 31.0085 165.339 31.0085 163.76C31.0085 162.139 30.5818 160.923 29.7285 160.112C28.8752 159.301 27.6805 158.896 26.1445 158.896C24.3098 158.896 22.9872 159.365 22.1765 160.304C21.4085 161.243 21.0245 162.352 21.0245 163.632C21.0245 165.211 21.4298 166.491 22.2405 167.472C23.0512 168.411 24.3098 168.88 26.0165 168.88ZM24.6085 187.312C26.6565 187.312 28.1925 186.821 29.2165 185.84C30.2405 184.816 30.7525 183.643 30.7525 182.32C30.7525 180.272 30.2832 178.736 29.3445 177.712C28.4058 176.688 27.0405 176.176 25.2485 176.176C23.4138 176.176 21.9632 176.645 20.8965 177.584C19.8725 178.523 19.3605 179.888 19.3605 181.68C19.3605 183.387 19.8725 184.752 20.8965 185.776C21.9205 186.8 23.1578 187.312 24.6085 187.312ZM78.2005 160.432C77.5178 159.024 77.0485 157.893 76.7925 157.04C76.5365 156.144 76.4085 155.355 76.4085 154.672C76.4085 153.691 76.6432 152.859 77.1125 152.176C77.5818 151.451 78.1792 150.917 78.9045 150.576C79.6298 150.192 80.3765 150 81.1445 150C82.2538 150 83.3205 150.448 84.3445 151.344C85.3685 152.197 86.3498 153.435 87.2885 155.056C89.2512 158.299 91.1285 161.733 92.9205 165.36C94.7125 168.987 96.6538 172.571 98.7445 176.112C99.5125 177.435 100.345 178.523 101.241 179.376C102.137 180.229 103.139 180.656 104.249 180.656C105.273 180.656 106.339 180.272 107.449 179.504C108.558 178.693 109.71 177.605 110.905 176.24C114.446 172.187 117.902 168.112 121.273 164.016C124.643 159.877 128.014 155.867 131.385 151.984C132.75 150.363 134.115 149.211 135.481 148.528C136.889 147.803 138.211 147.44 139.449 147.44C140.729 147.44 141.859 147.76 142.84 148.4C143.865 148.997 144.654 149.829 145.209 150.896C145.806 151.92 146.104 153.115 146.104 154.48C146.104 155.717 145.891 157.04 145.465 158.448C145.081 159.856 144.526 161.243 143.801 162.608C142.734 164.571 141.646 166.555 140.537 168.56C139.427 170.523 138.126 172.72 136.632 175.152C132.665 172.976 129.742 171.739 127.865 171.44C126.03 171.141 124.729 171.739 123.961 173.232C123.491 174.128 123.406 175.045 123.705 175.984C124.046 176.88 124.899 177.861 126.265 178.928C127.673 179.952 129.763 181.125 132.537 182.448C131.982 183.387 131.406 184.347 130.809 185.328C130.254 186.267 129.721 187.184 129.209 188.08C128.825 188.72 128.462 189.36 128.121 190C127.822 190.597 127.502 191.195 127.161 191.792C126.777 192.475 126.393 193.157 126.009 193.84C125.625 194.48 125.241 195.12 124.857 195.76C124.43 196.528 124.003 197.275 123.577 198C123.193 198.683 122.809 199.387 122.425 200.112C121.571 201.648 120.739 203.184 119.929 204.72C119.161 206.256 118.521 207.813 118.009 209.392C117.497 210.971 117.219 212.571 117.177 214.192C117.134 216.923 117.219 219.611 117.433 222.256C117.646 224.859 117.731 227.547 117.689 230.32C117.646 233.264 117.113 235.483 116.089 236.976C115.065 238.427 113.422 239.152 111.161 239.152C108.857 239.152 107.193 238.384 106.169 236.848C105.187 235.312 104.59 233.008 104.377 229.936C104.249 227.76 104.249 225.648 104.377 223.6C104.505 221.552 104.505 219.44 104.377 217.264C104.249 215.088 103.95 213.104 103.481 211.312C103.054 209.52 102.499 207.963 101.817 206.64C98.1045 199.344 94.1365 191.685 89.9125 183.664C85.6885 175.643 81.7845 167.899 78.2005 160.432ZM110.905 199.408C113.166 199.408 114.851 198.832 115.961 197.68C117.113 196.485 117.689 194.715 117.689 192.368C117.689 191.003 117.134 189.787 116.025 188.72C114.958 187.653 113.55 187.12 111.801 187.12C109.582 187.12 107.854 187.675 106.617 188.784C105.379 189.893 104.761 191.472 104.761 193.52C104.761 195.227 105.358 196.635 106.553 197.744C107.747 198.853 109.198 199.408 110.905 199.408ZM111.417 227.248C111.417 227.248 111.417 227.227 111.417 227.184C111.417 227.227 111.395 227.248 111.353 227.248C111.353 227.248 111.374 227.248 111.417 227.248ZM129.593 163.76C129.507 163.675 129.358 163.589 129.145 163.504C128.974 163.376 128.825 163.291 128.697 163.248C128.185 162.992 127.907 162.523 127.865 161.84C127.865 161.115 128.142 160.219 128.697 159.152C129.294 158.043 129.827 157.296 130.297 156.912C130.809 156.528 131.342 156.464 131.897 156.72C132.153 156.848 132.387 156.955 132.601 157.04C132.814 157.125 133.049 157.232 133.305 157.36C133.689 157.531 133.838 158.021 133.753 158.832C133.71 159.6 133.518 160.304 133.177 160.944C132.878 161.712 132.366 162.459 131.641 163.184C130.915 163.867 130.233 164.059 129.593 163.76ZM115.385 182.576C115.214 182.448 115.043 182.32 114.873 182.192C114.745 182.064 114.617 181.936 114.489 181.808C113.891 181.168 113.678 180.528 113.849 179.888C114.019 179.205 114.318 178.608 114.745 178.096C115.214 177.584 115.747 177.221 116.345 177.008C116.985 176.752 117.518 176.731 117.945 176.944C118.201 177.072 118.435 177.2 118.649 177.328C118.862 177.456 119.054 177.584 119.225 177.712C119.737 178.096 119.971 178.544 119.929 179.056C119.886 179.568 119.566 180.315 118.969 181.296C118.286 182.32 117.689 182.896 117.177 183.024C116.707 183.152 116.11 183.003 115.385 182.576ZM96.3125 178.864C96.1845 178.907 96.0352 178.992 95.8645 179.12C95.6938 179.205 95.5445 179.291 95.4165 179.376C95.1178 179.547 94.7552 179.504 94.3285 179.248C93.9445 178.992 93.4965 178.48 92.9845 177.712C92.3445 176.859 91.9605 176.176 91.8325 175.664C91.7045 175.152 91.8325 174.768 92.2165 174.512C92.3018 174.427 92.4085 174.341 92.5365 174.256C92.7072 174.128 92.8138 174.043 92.8565 174C93.2405 173.744 93.6672 173.765 94.1365 174.064C94.6058 174.32 95.0325 174.768 95.4165 175.408C96.0565 176.475 96.4405 177.264 96.5685 177.776C96.7392 178.288 96.6538 178.651 96.3125 178.864ZM97.8485 168.752C95.5445 169.776 93.2192 170.757 90.8725 171.696C88.5258 172.592 86.2005 173.488 83.8965 174.384C80.9098 175.536 78.6485 176.155 77.1125 176.24C75.6192 176.283 74.5525 175.536 73.9125 174C73.2725 172.379 73.5072 170.992 74.6165 169.84C75.7258 168.645 77.7098 167.387 80.5685 166.064C82.8725 164.912 85.1978 163.824 87.5445 162.8C89.8912 161.733 92.2165 160.731 94.5205 159.792C97.4645 158.555 99.9178 157.851 101.881 157.68C103.886 157.467 105.23 158.171 105.913 159.792C106.766 161.499 106.425 163.077 104.889 164.528C103.395 165.936 101.049 167.344 97.8485 168.752ZM180.128 235.184C179.573 235.184 179.04 235.077 178.528 234.864C178.016 234.651 177.525 234.331 177.056 233.904C176.714 233.563 176.416 233.136 176.16 232.624C175.904 232.112 175.669 231.408 175.456 230.512C175.285 229.573 175.136 228.293 175.008 226.672C174.88 225.051 174.752 222.939 174.624 220.336C174.581 219.269 174.538 218.245 174.496 217.264C174.453 216.283 174.41 215.323 174.368 214.384C174.325 213.573 174.282 212.784 174.24 212.016C174.24 211.205 174.218 210.416 174.176 209.648C174.133 208.539 174.09 207.472 174.048 206.448C174.048 205.424 174.005 204.421 173.92 203.44C173.92 203.056 173.898 202.672 173.856 202.288C173.856 201.904 173.856 201.52 173.856 201.136C173.856 200.709 173.834 200.325 173.792 199.984C173.792 199.557 173.77 199.152 173.728 198.768C173.728 198.341 173.706 197.936 173.664 197.552C173.664 197.125 173.642 196.72 173.6 196.336C173.514 194.203 173.408 192.027 173.28 189.808C173.194 187.547 173.088 185.179 172.96 182.704C172.832 180.101 172.213 178.053 171.104 176.56C170.037 175.067 168.693 173.893 167.072 173.04C165.45 172.144 163.722 171.355 161.888 170.672C160.096 169.989 158.41 169.179 156.832 168.24C155.253 167.301 153.952 166.021 152.928 164.4C151.946 162.736 151.456 160.517 151.456 157.744C151.456 155.397 151.818 153.477 152.544 151.984C153.269 150.448 154.421 149.317 156 148.592C157.621 147.867 159.776 147.504 162.464 147.504C162.08 151.984 162.208 155.035 162.848 156.656C163.53 158.235 164.512 159.024 165.792 159.024C167.2 159.024 168.266 158.299 168.992 156.848C169.717 155.355 170.101 152.283 170.144 147.632C171.296 147.632 172.49 147.632 173.728 147.632C174.965 147.632 176.16 147.632 177.312 147.632C177.184 151.429 177.184 154.352 177.312 156.4C177.482 158.405 177.845 159.792 178.4 160.56C178.954 161.328 179.744 161.712 180.768 161.712C181.664 161.712 182.432 161.349 183.072 160.624C183.754 159.856 184.266 158.469 184.608 156.464C184.949 154.459 185.12 151.557 185.12 147.76C190.837 147.76 195.445 147.824 198.944 147.952C202.442 148.037 205.088 148.251 206.88 148.592C208.714 148.891 209.93 149.403 210.528 150.128C211.168 150.811 211.488 151.771 211.488 153.008C211.488 154.331 210.933 155.333 209.824 156.016C208.757 156.656 207.349 157.147 205.6 157.488C203.893 157.787 202.058 158.085 200.096 158.384C198.176 158.64 196.32 159.045 194.528 159.6C192.778 160.112 191.306 160.923 190.112 162.032C188.96 163.141 188.32 164.72 188.192 166.768C187.424 178.16 186.826 187.739 186.4 195.504C185.973 203.227 185.61 209.541 185.312 214.448C185.056 219.312 184.821 223.088 184.608 225.776C184.394 228.464 184.138 230.427 183.84 231.664C183.541 232.859 183.157 233.691 182.688 234.16C182.432 234.459 182.048 234.715 181.536 234.928C181.066 235.099 180.597 235.184 180.128 235.184ZM199.328 178.992C197.493 178.992 195.85 178.373 194.4 177.136C192.992 175.899 192.288 174.128 192.288 171.824C192.288 169.435 192.928 167.515 194.208 166.064C195.488 164.613 197.493 163.888 200.224 163.888C202.357 163.888 204.085 164.592 205.408 166C206.73 167.365 207.392 169.008 207.392 170.928C207.392 173.744 206.73 175.792 205.408 177.072C204.128 178.352 202.101 178.992 199.328 178.992ZM182.432 220.72L182.048 211.504C187.125 211.291 191.029 211.205 193.76 211.248C196.49 211.291 198.368 211.611 199.392 212.208C200.458 212.805 200.992 213.808 200.992 215.216C200.992 216.923 200.48 218.139 199.456 218.864C198.474 219.547 196.64 219.995 193.952 220.208C191.306 220.379 187.466 220.549 182.432 220.72ZM177.312 185.904L177.184 195.632C171.68 195.589 167.434 195.483 164.448 195.312C161.461 195.141 159.37 194.693 158.176 193.968C157.024 193.2 156.448 191.963 156.448 190.256C156.448 188.507 157.109 187.312 158.432 186.672C159.797 185.989 162.016 185.648 165.088 185.648C168.16 185.605 172.234 185.691 177.312 185.904ZM218.907 230.704C218.736 223.536 218.608 216.24 218.523 208.816C218.437 201.349 218.352 193.968 218.267 186.672C221.979 186.928 224.603 186.736 226.139 186.096C227.717 185.456 228.507 184.368 228.507 182.832C228.507 181.808 228.187 180.997 227.547 180.4C226.907 179.76 225.819 179.333 224.283 179.12C222.789 178.864 220.741 178.779 218.139 178.864C218.139 177.84 218.139 176.795 218.139 175.728C218.139 174.661 218.139 173.616 218.139 172.592C223.856 172.72 227.632 172.379 229.467 171.568C231.301 170.757 232.219 169.563 232.219 167.984C232.219 166.875 231.792 166.021 230.939 165.424C230.128 164.827 228.699 164.464 226.651 164.336C224.603 164.165 221.787 164.187 218.203 164.4C218.16 164.101 218.139 163.845 218.139 163.632C218.139 163.376 218.139 163.12 218.139 162.864C218.139 158.171 219.077 154.693 220.955 152.432C222.832 150.128 226.075 148.997 230.683 149.04C234.608 149.04 237.509 150.32 239.387 152.88C241.264 155.44 242.032 159.152 241.691 164.016C241.435 168.24 241.072 172.443 240.603 176.624C240.133 180.805 239.771 185.051 239.515 189.36C239.472 190.555 239.621 191.429 239.963 191.984C240.304 192.496 241.051 192.859 242.203 193.072C245.403 193.584 248.603 193.968 251.803 194.224C255.045 194.48 258.331 194.693 261.659 194.864C262.768 194.907 263.515 194.779 263.899 194.48C264.325 194.181 264.56 193.371 264.603 192.048C264.944 185.563 265.221 179.184 265.435 172.912C265.691 166.64 265.968 160.603 266.267 154.8C266.395 152.539 266.864 150.768 267.675 149.488C268.485 148.165 269.808 147.504 271.643 147.504C273.563 147.504 274.885 148.165 275.611 149.488C276.379 150.811 276.763 152.795 276.763 155.44C276.848 168.368 276.827 181.531 276.699 194.928C276.571 208.325 276.336 221.744 275.995 235.184C275.952 237.744 275.419 239.749 274.395 241.2C273.413 242.651 271.728 243.376 269.339 243.376C266.907 243.376 265.157 242.565 264.091 240.944C263.024 239.365 262.512 237.275 262.555 234.672C262.683 230.192 262.896 225.776 263.195 221.424C263.493 217.072 263.707 212.699 263.835 208.304C263.877 207.408 263.728 206.747 263.387 206.32C263.088 205.851 262.555 205.552 261.787 205.424C261.275 205.339 260.784 205.275 260.315 205.232C259.845 205.147 259.355 205.083 258.843 205.04C258.416 204.997 257.968 204.955 257.499 204.912C257.072 204.869 256.624 204.827 256.155 204.784C255.685 204.741 255.216 204.699 254.747 204.656C254.363 204.613 253.979 204.571 253.595 204.528C253.253 204.485 252.891 204.443 252.507 204.4C252.165 204.357 251.803 204.336 251.419 204.336C250.608 204.251 249.797 204.187 248.987 204.144C248.219 204.059 247.408 203.995 246.555 203.952C246.043 203.909 245.531 203.867 245.019 203.824C244.507 203.739 244.016 203.696 243.547 203.696C243.12 203.653 242.672 203.611 242.203 203.568C241.691 203.525 241.179 203.483 240.667 203.44C240.155 203.397 239.643 203.355 239.131 203.312C238.704 203.269 238.235 203.248 237.723 203.248C237.253 203.248 236.784 203.227 236.315 203.184C235.248 203.099 234.331 203.312 233.563 203.824C232.795 204.336 232.347 205.147 232.219 206.256C231.835 210.48 231.493 214.789 231.195 219.184C230.896 223.536 230.512 227.675 230.043 231.6C229.872 233.307 229.317 234.8 228.378 236.08C227.44 237.36 226.075 238 224.283 238C222.363 238 220.997 237.339 220.187 236.016C219.419 234.651 218.992 232.88 218.907 230.704ZM233.883 199.728C232.944 199.728 232.219 199.451 231.707 198.896C231.195 198.341 230.939 197.424 230.939 196.144C230.939 195.419 231.237 194.779 231.835 194.224C232.475 193.627 233.328 193.328 234.395 193.328C235.248 193.328 235.952 193.648 236.507 194.288C237.061 194.928 237.339 195.675 237.339 196.528C237.339 197.467 236.997 198.235 236.315 198.832C235.675 199.429 234.864 199.728 233.883 199.728ZM279.451 175.536C281.584 175.664 283.248 176.069 284.443 176.752C285.637 177.392 286.235 178.48 286.235 180.016C286.235 181.424 285.595 182.384 284.315 182.896C283.035 183.408 281.328 183.771 279.195 183.984C276.848 184.112 274.032 184.24 270.747 184.368C267.504 184.453 264.219 184.496 260.891 184.496C258.032 184.496 256.005 184.112 254.811 183.344C253.659 182.533 253.083 181.339 253.083 179.76C253.083 178.139 253.765 176.987 255.131 176.304C256.539 175.621 258.501 175.28 261.019 175.28C264.219 175.28 267.312 175.301 270.299 175.344C273.328 175.344 276.379 175.408 279.451 175.536ZM248.475 231.728C246.128 231.728 244.208 231.003 242.715 229.552C241.264 228.059 240.539 226.011 240.539 223.408C240.539 221.659 241.136 220.144 242.331 218.864C243.525 217.541 245.531 216.88 248.347 216.88C250.48 216.88 252.187 217.499 253.467 218.736C254.747 219.931 255.387 221.915 255.387 224.688C255.387 226.651 254.683 228.315 253.275 229.68C251.867 231.045 250.267 231.728 248.475 231.728ZM278.171 156.848C280.944 157.019 282.992 157.467 284.315 158.192C285.68 158.917 286.363 160.048 286.363 161.584C286.363 163.291 285.573 164.421 283.995 164.976C282.459 165.488 280.347 165.68 277.659 165.552C274.8 165.424 271.92 165.253 269.019 165.04C266.16 164.784 263.28 164.528 260.379 164.272C257.776 164.016 255.877 163.547 254.683 162.864C253.531 162.139 252.955 161.115 252.955 159.792C252.955 158.384 253.595 157.403 254.875 156.848C256.155 156.251 258.203 155.995 261.019 156.08C263.92 156.123 266.779 156.208 269.595 156.336C272.453 156.464 275.312 156.635 278.171 156.848ZM327.758 239.408C320.035 239.408 313.55 237.659 308.302 234.16C303.096 230.619 299.171 225.712 296.526 219.44C293.88 213.168 292.558 205.915 292.558 197.68C292.558 187.525 294.179 178.693 297.422 171.184C300.707 163.632 305.272 157.787 311.118 153.648C316.963 149.467 323.747 147.376 331.47 147.376C336.888 147.376 341.667 148.379 345.806 150.384C349.944 152.389 353.422 155.333 356.238 159.216C359.096 163.056 361.23 167.728 362.638 173.232C364.088 178.693 364.792 184.923 364.75 191.92C364.707 202.331 363.107 211.056 359.95 218.096C356.835 225.136 352.504 230.448 346.958 234.032C341.411 237.616 335.011 239.408 327.758 239.408ZM334.926 221.616C338.894 221.616 342.35 220.528 345.294 218.352C348.28 216.176 350.584 212.891 352.206 208.496C353.827 204.059 354.638 198.491 354.638 191.792C354.638 184.624 353.806 178.373 352.142 173.04C350.478 167.707 348.046 163.568 344.846 160.624C341.646 157.68 337.742 156.208 333.134 156.208C329.55 156.208 326.307 157.253 323.406 159.344C320.504 161.435 318.2 164.635 316.494 168.944C314.787 173.211 313.934 178.608 313.934 185.136C313.934 192.432 314.766 198.811 316.43 204.272C318.136 209.733 320.547 214 323.662 217.072C326.819 220.101 330.574 221.616 334.926 221.616ZM318.03 221.744C316.451 221.744 315.278 222.171 314.51 223.024C313.784 223.835 313.422 225.328 313.422 227.504C313.422 228.784 313.87 229.808 314.766 230.576C315.704 231.344 317.091 231.728 318.926 231.728C320.334 231.728 321.422 231.344 322.19 230.576C323 229.765 323.406 228.571 323.406 226.992C323.406 225.072 322.979 223.728 322.126 222.96C321.315 222.149 319.95 221.744 318.03 221.744ZM307.406 207.92C305.699 207.92 304.398 208.411 303.502 209.392C302.606 210.331 302.158 211.547 302.158 213.04C302.158 215.088 302.67 216.624 303.694 217.648C304.76 218.672 306.083 219.184 307.662 219.184C309.454 219.184 310.862 218.736 311.886 217.84C312.91 216.901 313.422 215.728 313.422 214.32C313.422 212.144 312.867 210.544 311.758 209.52C310.648 208.453 309.198 207.92 307.406 207.92ZM304.333 191.152C302.542 191.152 301.262 191.6 300.494 192.496C299.726 193.349 299.342 194.779 299.342 196.784C299.342 197.936 299.747 198.939 300.558 199.792C301.411 200.603 302.798 201.008 304.718 201.008C305.998 201.008 307.064 200.624 307.918 199.856C308.771 199.088 309.198 197.851 309.198 196.144C309.198 194.267 308.771 192.965 307.918 192.24C307.064 191.515 305.87 191.152 304.333 191.152ZM346.062 157.232C345.251 158.811 344.376 160.411 343.438 162.032C342.499 163.611 341.539 165.211 340.558 166.832C338.851 169.648 337.4 171.483 336.206 172.336C335.054 173.147 333.859 173.275 332.622 172.72C331.299 172.037 330.702 170.928 330.83 169.392C330.958 167.813 331.854 165.467 333.518 162.352C334.414 160.688 335.352 159.024 336.334 157.36C337.358 155.696 338.382 154.075 339.406 152.496C339.875 151.728 340.579 151.301 341.518 151.216C342.456 151.088 343.331 151.216 344.142 151.6C345.123 152.027 345.87 152.731 346.382 153.712C346.894 154.693 346.787 155.867 346.062 157.232ZM326.926 152.624C327.011 152.795 327.075 152.987 327.118 153.2C327.203 153.371 327.267 153.563 327.31 153.776C327.523 154.587 327.374 155.291 326.862 155.888C326.392 156.443 325.838 156.848 325.198 157.104C324.43 157.36 323.576 157.531 322.638 157.616C321.699 157.659 321.08 157.381 320.782 156.784C320.611 156.443 320.44 156.123 320.27 155.824C320.142 155.483 320.014 155.163 319.886 154.864C319.63 154.267 319.822 153.669 320.462 153.072C321.144 152.432 321.87 151.984 322.638 151.728C323.491 151.472 324.344 151.387 325.198 151.472C326.094 151.515 326.67 151.899 326.926 152.624ZM346.19 199.472C348.195 200.069 350.243 200.709 352.334 201.392C354.467 202.075 356.558 202.8 358.606 203.568C359.63 203.952 360.312 204.549 360.654 205.36C361.038 206.171 361.123 207.024 360.91 207.92C360.739 208.859 360.227 209.691 359.374 210.416C358.52 211.099 357.454 211.291 356.174 210.992C354.126 210.48 352.056 209.947 349.966 209.392C347.918 208.795 345.891 208.176 343.886 207.536C339.406 206.128 336.632 204.891 335.566 203.824C334.499 202.715 334.115 201.563 334.414 200.368C334.755 199.003 335.694 198.171 337.23 197.872C338.808 197.531 341.795 198.064 346.19 199.472ZM297.038 180.784C297.251 180.699 297.464 180.635 297.678 180.592C297.934 180.507 298.147 180.443 298.318 180.4C298.616 180.315 298.851 180.293 299.022 180.336C299.235 180.379 299.406 180.485 299.534 180.656C299.704 180.784 299.854 180.955 299.982 181.168C300.152 181.467 300.238 181.744 300.238 182C300.28 182.213 300.238 182.427 300.11 182.64C300.024 182.811 299.854 182.96 299.598 183.088C299.427 183.131 299.235 183.216 299.022 183.344C298.851 183.429 298.659 183.515 298.446 183.6C298.147 183.728 297.87 183.664 297.614 183.408C297.358 183.152 297.123 182.832 296.91 182.448C296.782 182.064 296.718 181.701 296.718 181.36C296.76 181.019 296.867 180.827 297.038 180.784ZM355.021 175.92C356.302 175.536 357.454 175.515 358.478 175.856C359.502 176.197 360.227 177.115 360.654 178.608C361.123 180.059 361.123 181.211 360.654 182.064C360.184 182.917 359.246 183.6 357.838 184.112C356.942 184.496 355.982 184.88 354.958 185.264C353.934 185.605 352.462 186.032 350.542 186.544C346.915 187.44 344.355 187.824 342.862 187.696C341.368 187.568 340.387 186.843 339.918 185.52C339.406 183.984 339.726 182.683 340.878 181.616C342.03 180.507 344.355 179.376 347.854 178.224C349.347 177.712 350.606 177.285 351.63 176.944C352.696 176.56 353.827 176.219 355.021 175.92ZM350.926 220.464C351.182 220.763 351.416 221.061 351.63 221.36C351.886 221.616 352.12 221.915 352.334 222.256C352.803 222.811 353.059 223.557 353.102 224.496C353.144 225.392 352.547 226.395 351.31 227.504C350.03 228.699 348.899 229.147 347.918 228.848C346.936 228.549 346.147 228.059 345.55 227.376C345.251 226.907 344.995 226.544 344.782 226.288C344.611 225.989 344.398 225.669 344.142 225.328C343.587 224.432 343.395 223.493 343.566 222.512C343.779 221.531 344.398 220.635 345.422 219.824C346.446 218.971 347.47 218.672 348.494 218.928C349.56 219.184 350.371 219.696 350.926 220.464ZM376.469 228.912C376.511 225.84 376.597 222.213 376.725 218.032C376.895 213.808 377.087 209.349 377.301 204.656C377.514 199.92 377.749 195.248 378.005 190.64C378.005 189.915 378.026 189.232 378.069 188.592C378.154 187.909 378.197 187.227 378.197 186.544C378.282 185.819 378.325 185.136 378.325 184.496C378.325 183.813 378.346 183.131 378.389 182.448C378.474 181.168 378.538 179.952 378.581 178.8C378.666 177.605 378.73 176.432 378.773 175.28C383.764 175.152 387.541 174.875 390.101 174.448C392.703 174.021 394.453 173.403 395.349 172.592C396.245 171.781 396.65 170.715 396.565 169.392C396.437 167.643 395.178 166.576 392.789 166.192C390.442 165.808 385.941 165.979 379.285 166.704C379.37 165.723 379.434 164.784 379.477 163.888C379.562 162.949 379.626 162.011 379.669 161.072C380.138 155.739 381.461 151.963 383.637 149.744C385.855 147.483 388.863 146.352 392.661 146.352C396.245 146.352 399.146 147.291 401.365 149.168C403.626 151.003 405.909 154.16 408.213 158.64C409.877 161.84 411.69 165.851 413.653 170.672C415.615 175.493 417.642 180.677 419.733 186.224C421.866 191.728 423.978 197.189 426.069 202.608C428.159 207.984 430.143 212.827 432.021 217.136C432.49 218.245 433.13 218.928 433.941 219.184C434.794 219.397 435.541 219.227 436.181 218.672C436.863 218.117 437.183 217.221 437.141 215.984C436.97 209.456 436.778 202.459 436.565 194.992C436.351 187.483 436.159 180.123 435.989 172.912C435.861 165.659 435.733 159.152 435.604 153.392C435.519 150.619 435.861 148.507 436.629 147.056C437.397 145.563 438.933 144.816 441.237 144.816C443.626 144.816 445.162 145.563 445.845 147.056C446.527 148.507 446.869 150.533 446.869 153.136C446.869 159.493 446.869 166.555 446.869 174.32C446.869 182.043 446.826 189.936 446.741 198C446.698 206.064 446.57 213.765 446.357 221.104C446.229 225.371 445.034 228.379 442.773 230.128C440.554 231.877 438.122 232.752 435.477 232.752C433.685 232.752 431.85 232.389 429.973 231.664C428.095 230.939 426.175 229.552 424.213 227.504C420.586 223.536 417.066 219.291 413.653 214.768C410.239 210.203 406.933 205.723 403.733 201.328C400.575 196.891 397.482 192.901 394.453 189.36C393.727 188.507 393.173 187.952 392.789 187.696C392.447 187.44 392.042 187.312 391.573 187.312C390.506 187.312 389.695 187.696 389.141 188.464C388.629 189.232 388.373 190.256 388.373 191.536C388.373 195.632 388.479 199.749 388.693 203.888C388.949 208.027 389.162 212.187 389.333 216.368C389.546 220.549 389.653 224.731 389.653 228.912C389.653 231.941 389.162 234.288 388.181 235.952C387.199 237.573 385.429 238.384 382.869 238.384C380.266 238.384 378.538 237.467 377.685 235.632C376.831 233.755 376.426 231.515 376.469 228.912ZM436.501 156.592C437.098 156.635 437.653 156.699 438.165 156.784C438.719 156.827 439.274 156.891 439.829 156.976C440.597 157.104 441.237 157.36 441.749 157.744C442.303 158.128 442.709 158.64 442.965 159.28C443.263 159.877 443.413 160.56 443.413 161.328C443.413 162.053 443.285 162.715 443.029 163.312C442.773 163.867 442.346 164.336 441.749 164.72C441.194 165.061 440.426 165.253 439.445 165.296C438.933 165.296 438.421 165.296 437.909 165.296C437.397 165.296 436.885 165.296 436.373 165.296C432.277 165.125 429.183 164.848 427.093 164.464C425.002 164.08 423.594 163.547 422.869 162.864C422.143 162.181 421.781 161.285 421.781 160.176C421.781 158.939 422.143 158 422.869 157.36C423.637 156.677 425.066 156.272 427.157 156.144C429.29 155.973 432.405 156.123 436.501 156.592ZM440.725 166.32C440.981 166.32 441.237 166.32 441.493 166.32C441.749 166.32 442.005 166.32 442.261 166.32C442.858 166.32 443.562 166.725 444.373 167.536C445.183 168.304 445.589 169.349 445.589 170.672C445.589 171.952 445.226 172.955 444.501 173.68C443.818 174.405 443.178 174.768 442.581 174.768C442.197 174.768 441.877 174.768 441.621 174.768C441.407 174.768 441.087 174.768 440.66 174.768C439.637 174.768 438.869 174.405 438.357 173.68C437.887 172.912 437.653 171.824 437.653 170.416C437.653 168.923 437.93 167.877 438.485 167.28C439.039 166.64 439.786 166.32 440.725 166.32ZM443.541 174.64C444.138 174.555 444.629 174.491 445.013 174.448C445.439 174.405 445.845 174.384 446.229 174.384C449.514 174.128 451.946 174.128 453.525 174.384C455.103 174.64 456.127 175.109 456.597 175.792C457.066 176.475 457.301 177.328 457.301 178.352C457.301 179.504 457.066 180.464 456.597 181.232C456.17 182 455.167 182.555 453.589 182.896C452.053 183.237 449.685 183.344 446.485 183.216C445.973 183.216 445.418 183.216 444.821 183.216C444.266 183.173 443.754 183.088 443.285 182.96C442.09 182.704 441.237 182.171 440.725 181.36C440.213 180.507 439.957 179.547 439.957 178.48C439.957 177.413 440.277 176.539 440.917 175.856C441.599 175.173 442.474 174.768 443.541 174.64ZM386.005 214.96C388.138 214.96 390.357 215.003 392.661 215.088C394.965 215.131 397.333 215.216 399.765 215.344C401.685 215.429 403.199 215.856 404.309 216.624C405.461 217.392 406.037 218.587 406.037 220.208C406.037 222.043 405.439 223.323 404.245 224.048C403.093 224.773 401.386 225.072 399.125 224.944C396.522 224.816 393.962 224.667 391.445 224.496C388.927 224.283 386.73 224.091 384.853 223.92C382.506 223.664 381.034 223.131 380.437 222.32C379.839 221.509 379.541 220.507 379.541 219.312C379.541 217.904 379.967 216.837 380.821 216.112C381.674 215.344 383.402 214.96 386.005 214.96ZM399.381 223.92C398.485 223.92 397.695 223.579 397.013 222.896C396.373 222.171 396.053 221.232 396.053 220.08C396.053 218.928 396.415 218.032 397.141 217.392C397.866 216.709 398.954 216.368 400.405 216.368C401.173 216.368 401.898 216.688 402.581 217.328C403.263 217.925 403.604 218.8 403.604 219.952C403.604 221.147 403.242 222.107 402.517 222.832C401.834 223.557 400.789 223.92 399.381 223.92ZM406.677 189.488C408.469 189.488 409.834 188.891 410.773 187.696C411.711 186.501 412.181 184.923 412.181 182.96C412.181 181.552 411.626 180.293 410.517 179.184C409.45 178.032 407.914 177.456 405.909 177.456C404.202 177.456 402.815 178.053 401.749 179.248C400.682 180.4 400.149 182.064 400.149 184.24C400.149 185.819 400.682 187.099 401.749 188.08C402.858 189.019 404.501 189.488 406.677 189.488Z" fill="white"/>
</svg>
