<svg width="350" height="69" viewBox="0 0 350 69" fill="none" xmlns="http://www.w3.org/2000/svg">
<path d="M35.8439 58.912C36.1639 58.784 36.5799 58.656 37.0919 58.528C37.6039 58.4 38.1159 58.176 38.6279 57.856C38.6279 57.024 38.6599 56.288 38.7239 55.648C38.7879 55.008 38.8199 54.336 38.8199 53.632C38.8199 53.312 38.7879 53.024 38.7239 52.768C38.7239 52.448 38.7239 52.128 38.7239 51.808C38.7239 51.424 38.6919 51.072 38.6279 50.752C38.6279 50.432 38.6279 50.08 38.6279 49.696C38.6279 49.056 38.6279 48.384 38.6279 47.68C38.6279 46.976 38.4999 46.368 38.2439 45.856H32.0039L31.8119 44.032L31.5239 42.4C31.5239 42.272 31.5239 42.144 31.5239 42.016C31.5239 41.888 31.5559 41.76 31.6199 41.632C32.0679 41.696 32.6119 41.728 33.2519 41.728C33.8919 41.664 34.4999 41.6 35.0759 41.536C35.2039 41.536 35.5559 41.536 36.1319 41.536C36.7719 41.536 37.4119 41.568 38.0519 41.632C38.7559 41.632 39.3959 41.664 39.9719 41.728C40.5479 41.728 40.8999 41.728 41.0279 41.728H42.1799C42.8839 41.856 43.4919 41.888 44.0039 41.824C44.5799 41.696 45.2839 41.632 46.1159 41.632C46.4359 41.568 46.7879 41.568 47.1719 41.632C47.6199 41.696 48.0039 41.696 48.3239 41.632C48.5799 41.632 48.7399 41.664 48.8039 41.728C48.8679 41.728 49.0599 41.888 49.3799 42.208C49.3159 42.72 49.2839 43.232 49.2839 43.744C49.2839 44.192 49.2839 44.672 49.2839 45.184C49.3479 45.888 49.3799 46.592 49.3799 47.296C49.4439 47.936 49.4439 48.608 49.3799 49.312C49.3159 50.208 49.2839 51.104 49.2839 52C49.2839 52.896 49.2839 53.792 49.2839 54.688C49.2839 55.648 49.2839 56.544 49.2839 57.376C49.2839 58.208 49.3159 59.104 49.3799 60.064V64.576C49.3159 65.408 49.3159 66.112 49.3799 66.688C49.4439 67.328 49.3799 67.68 49.1879 67.744C48.6759 68.064 47.9399 68.192 46.9799 68.128C46.0839 68.128 45.2839 68.128 44.5799 68.128H39.1079C39.1079 67.68 39.1079 67.104 39.1079 66.4C39.1719 65.696 39.1719 65.184 39.1079 64.864H38.6279C37.2199 65.12 35.8439 65.376 34.4999 65.632C33.1559 65.952 31.7799 66.272 30.3719 66.592C30.0519 66.656 29.7639 66.688 29.5079 66.688C29.2519 66.752 28.9639 66.784 28.6439 66.784C27.8119 66.784 27.0119 66.752 26.2439 66.688C25.4759 66.688 24.7399 66.688 24.0359 66.688C23.1399 66.624 22.1479 66.528 21.0599 66.4C20.0359 66.272 19.2999 66.112 18.8519 65.92C18.0839 65.664 17.0279 65.216 15.6839 64.576C14.4039 64 13.3159 63.552 12.4199 63.232C11.9079 62.72 11.3959 62.304 10.8839 61.984C10.3719 61.6 9.85988 61.12 9.34788 60.544C9.02788 60.224 8.70788 59.936 8.38788 59.68C8.13188 59.424 7.87588 59.168 7.61988 58.912C6.53188 57.824 5.60388 56.608 4.83588 55.264C4.13188 53.92 3.39588 52.64 2.62788 51.424C2.49988 50.592 2.21188 49.856 1.76388 49.216C1.37988 48.576 1.18788 47.84 1.18788 47.008C1.18788 46.112 1.09188 45.28 0.899875 44.512C0.707875 43.68 0.611875 42.912 0.611875 42.208C0.611875 41.76 0.643875 41.152 0.707875 40.384C0.771875 39.616 0.835875 38.816 0.899875 37.984C1.02788 37.152 1.15588 36.384 1.28388 35.68C1.41188 34.976 1.53988 34.432 1.66788 34.048C1.66788 33.472 1.76388 32.8 1.95588 32.032C2.14788 31.264 2.37188 30.624 2.62788 30.112C2.94788 29.344 3.36388 28.448 3.87588 27.424C4.38788 26.4 4.89988 25.504 5.41188 24.736C5.73188 24.224 6.01988 23.84 6.27588 23.584C6.53188 23.264 6.78788 22.944 7.04388 22.624C7.55588 21.728 8.19588 20.928 8.96388 20.224C9.79588 19.456 10.5959 18.816 11.3639 18.304C12.6439 17.472 13.8919 16.608 15.1079 15.712C16.3239 14.816 17.4759 14.208 18.5639 13.888C19.3959 13.376 20.2599 12.96 21.1559 12.64C22.1159 12.32 23.0439 12 23.9399 11.68C25.2199 11.168 26.4679 10.848 27.6839 10.72C28.8999 10.592 30.1479 10.368 31.4279 10.048H33.7319C33.9879 10.048 34.3399 10.048 34.7879 10.048C35.2999 9.984 35.8119 9.824 36.3239 9.568H37.5719C38.0839 9.568 38.4359 9.6 38.6279 9.664C38.8839 9.664 39.3959 9.792 40.1639 10.048C40.4199 10.368 40.4839 10.784 40.3559 11.296C40.2279 11.744 40.1639 12.256 40.1639 12.832V15.52C39.6519 15.456 39.0119 15.488 38.2439 15.616C37.5399 15.744 36.8039 15.904 36.0359 16.096C35.3319 16.224 34.5959 16.416 33.8279 16.672C33.1239 16.864 32.5159 17.024 32.0039 17.152C31.1719 17.472 30.2439 17.888 29.2199 18.4C28.2599 18.848 27.2039 19.328 26.0519 19.84C25.9879 19.84 25.6679 20.096 25.0919 20.608C24.5799 21.056 23.9719 21.568 23.2679 22.144C22.6279 22.72 22.0199 23.264 21.4439 23.776C20.9319 24.288 20.6439 24.608 20.5799 24.736C19.3639 26.144 18.4359 27.584 17.7959 29.056C17.2199 30.528 16.5479 32 15.7799 33.472C15.4599 34.496 15.2679 35.584 15.2039 36.736C15.1399 37.888 14.9799 39.104 14.7239 40.384V43.264C14.9799 44.288 15.2359 45.248 15.4919 46.144C15.7479 47.04 16.0039 48.032 16.2599 49.12C16.6439 50.272 17.1559 51.264 17.7959 52.096C18.4999 52.928 19.2999 53.792 20.1959 54.688C20.5159 55.008 21.1239 55.552 22.0199 56.32C22.9799 57.024 23.8759 57.536 24.7079 57.856C25.4119 58.112 26.1159 58.304 26.8199 58.432C27.5239 58.56 28.2599 58.784 29.0279 59.104C29.3479 59.232 29.6359 59.328 29.8919 59.392C30.1479 59.456 30.4039 59.488 30.6599 59.488C31.5559 59.488 32.3879 59.424 33.1559 59.296C33.9879 59.168 34.8839 59.04 35.8439 58.912ZM90.6321 66.304L89.9601 66.4C89.6401 66.464 89.4161 66.464 89.2881 66.4C89.2241 66.4 88.9361 66.4 88.4241 66.4C88.3601 66.4 88.1681 66.432 87.8481 66.496C87.5281 66.56 87.1761 66.624 86.7921 66.688C86.4081 66.752 85.9921 66.752 85.5441 66.688C85.0961 66.688 84.7441 66.624 84.4881 66.496C84.1681 66.496 83.9441 66.464 83.8161 66.4C83.6881 66.336 83.4641 66.304 83.1441 66.304C82.8241 66.048 82.6321 65.664 82.5681 65.152C82.5681 64.64 82.5681 64.224 82.5681 63.904V61.504L81.8001 62.56L80.0721 64.192C79.4321 64.64 78.8881 64.992 78.4401 65.248C78.0561 65.568 77.5761 65.888 77.0001 66.208C76.0401 66.784 74.9841 67.168 73.8321 67.36C72.7441 67.552 71.7201 67.648 70.7601 67.648C69.8001 67.648 68.7761 67.456 67.6881 67.072C66.6641 66.688 65.7361 66.336 64.9041 66.016C64.6481 65.952 64.3921 65.824 64.1361 65.632C63.9441 65.504 63.7521 65.376 63.5601 65.248C63.1761 64.928 62.7281 64.608 62.2161 64.288C61.7681 63.968 61.3841 63.648 61.0641 63.328C60.8721 63.2 60.6801 63.072 60.4881 62.944C60.3601 62.752 60.1681 62.592 59.9121 62.464C59.5921 62.272 59.3041 61.952 59.0481 61.504C58.7281 60.8 58.3121 60.128 57.8001 59.488C57.3521 58.784 56.9681 57.984 56.6481 57.088C56.4561 56.384 56.2001 55.712 55.8801 55.072C55.5601 54.432 55.4001 53.824 55.4001 53.248C55.4001 52.928 55.3681 52.384 55.3041 51.616C55.2401 50.848 55.2081 50.304 55.2081 49.984C55.2081 49.408 55.2081 48.96 55.2081 48.64C55.2721 48.32 55.3041 47.84 55.3041 47.2C55.3041 46.88 55.3361 46.56 55.4001 46.24C55.5281 45.856 55.6561 45.376 55.7841 44.8C55.9121 44.096 56.0081 43.36 56.0721 42.592C56.1361 41.76 56.2321 41.088 56.3601 40.576C56.8081 39.744 57.0961 39.232 57.2241 39.04C57.4161 38.848 57.5761 38.496 57.7041 37.984C57.8321 37.6 57.9921 37.12 58.1841 36.544C58.4401 35.904 58.7921 35.424 59.2401 35.104C59.4321 34.976 59.7201 34.752 60.1041 34.432C60.4881 34.112 60.8721 33.76 61.2561 33.376C61.7041 32.992 62.0881 32.672 62.4081 32.416C62.7281 32.096 62.9521 31.936 63.0801 31.936L64.8081 31.168C65.3201 30.976 65.8961 30.848 66.5361 30.784C67.1761 30.656 67.7841 30.592 68.3601 30.592L71.3361 30.496C71.6561 30.496 72.0081 30.496 72.3921 30.496C72.8401 30.496 73.1281 30.528 73.2561 30.592C73.5761 30.592 73.8961 30.688 74.2161 30.88C74.5361 31.072 74.8561 31.168 75.1761 31.168C75.4961 31.168 75.8801 31.296 76.3281 31.552C76.8401 31.744 77.2561 32 77.5761 32.32C78.2161 32.576 78.6961 32.896 79.0161 33.28C79.4001 33.6 79.7521 33.92 80.0721 34.24C80.3921 34.56 80.6801 34.88 80.9361 35.2C81.2561 35.456 81.5761 35.744 81.8961 36.064C81.8961 36.256 82.0241 36.416 82.2801 36.544C82.4081 36.608 82.5041 36.672 82.5681 36.736C82.6961 36.608 82.7601 36.352 82.7601 35.968C82.8241 35.584 82.9521 35.232 83.1441 34.912C83.2081 34.016 83.2401 33.216 83.2401 32.512C83.3041 31.744 83.3681 31.232 83.4321 30.976C83.3681 30.72 83.4001 30.368 83.5281 29.92C83.6561 29.408 83.8801 29.216 84.2001 29.344C84.3281 29.28 84.6161 29.28 85.0641 29.344C85.5121 29.408 86.0241 29.504 86.6001 29.632C87.1761 29.696 87.7521 29.76 88.3281 29.824C88.9681 29.888 89.5121 29.92 89.9601 29.92C90.0241 29.92 90.0561 30.08 90.0561 30.4C90.0561 30.72 90.0241 30.976 89.9601 31.168L90.5361 40.384V50.752C90.5361 50.944 90.5041 51.136 90.4401 51.328C90.4401 51.52 90.4401 51.712 90.4401 51.904C90.5041 52.48 90.5361 53.088 90.5361 53.728C90.5361 54.304 90.5361 54.912 90.5361 55.552C90.6001 56 90.6001 56.48 90.5361 56.992C90.5361 57.44 90.5361 57.92 90.5361 58.432C90.5361 58.816 90.5361 59.36 90.5361 60.064C90.6001 60.704 90.6321 61.376 90.6321 62.08C90.6321 62.784 90.6321 63.456 90.6321 64.096C90.6321 64.8 90.6321 65.376 90.6321 65.824V66.304ZM78.2481 51.808V51.52C78.2481 51.136 78.3121 50.304 78.4401 49.024C78.5681 47.68 78.2801 46.048 77.5761 44.128C77.3841 43.616 77.0961 43.072 76.7121 42.496C76.3281 41.92 75.7201 41.472 74.8881 41.152C74.4401 41.024 74.0241 40.896 73.6401 40.768C73.2561 40.576 72.8401 40.512 72.3921 40.576C71.9441 40.704 71.3681 40.992 70.6641 41.44C70.0241 41.888 69.4801 42.432 69.0321 43.072C68.7121 43.392 68.5201 43.744 68.4561 44.128C68.3921 44.512 68.3281 44.96 68.2641 45.472C68.0721 46.304 67.9121 46.944 67.7841 47.392C67.7201 47.84 67.6881 48.416 67.6881 49.12C67.6881 50.4 68.0401 51.52 68.7441 52.48C69.5121 53.44 69.9921 54.08 70.1841 54.4C70.3761 54.592 70.5361 54.72 70.6641 54.784C70.8561 54.784 71.1121 54.944 71.4321 55.264C72.0721 55.584 72.6801 55.648 73.2561 55.456C73.8321 55.2 74.4721 54.912 75.1761 54.592H75.7521C76.3281 54.272 76.8081 53.952 77.1921 53.632C77.5761 53.312 77.9281 52.832 78.2481 52.192V51.808ZM150.374 62.848C150.502 61.376 150.534 60.064 150.47 58.912C150.406 57.696 150.374 56.64 150.374 55.744C150.182 54.976 150.054 54.208 149.99 53.44C149.926 52.608 149.83 51.84 149.702 51.136C149.382 50.24 149.158 49.344 149.03 48.448C148.966 47.488 148.774 46.56 148.454 45.664C148.454 44.704 148.262 43.808 147.878 42.976C147.558 42.08 146.95 41.312 146.054 40.672C145.35 40.352 144.71 40.064 144.134 39.808C143.558 39.552 142.95 39.424 142.31 39.424C141.99 39.616 141.446 39.936 140.678 40.384C139.974 40.832 139.462 41.408 139.142 42.112C138.822 42.88 138.534 43.584 138.278 44.224C138.086 44.8 137.862 45.28 137.606 45.664C137.222 46.304 137.03 47.072 137.03 47.968C137.03 48.864 136.998 49.664 136.934 50.368C136.934 50.496 136.902 50.816 136.838 51.328C136.774 51.776 136.71 52.288 136.646 52.864C136.582 53.44 136.518 53.984 136.454 54.496C136.39 54.944 136.358 55.232 136.358 55.36L135.59 60.928C135.59 61.376 135.558 61.824 135.494 62.272C135.494 62.656 135.494 63.072 135.494 63.52C135.494 63.84 135.462 64.16 135.398 64.48C135.334 64.8 135.302 65.12 135.302 65.44H134.726C133.958 65.568 133.126 65.632 132.23 65.632C131.398 65.632 130.406 65.568 129.254 65.44C128.934 65.376 128.646 65.312 128.39 65.248C128.198 65.184 128.102 64.832 128.102 64.192C128.102 63.424 128.07 62.72 128.006 62.08C128.006 61.44 128.006 60.768 128.006 60.064C128.07 59.104 128.102 58.144 128.102 57.184C128.102 56.16 128.006 55.072 127.814 53.92C127.814 53.088 127.718 52.192 127.526 51.232C127.334 50.272 127.174 49.344 127.046 48.448C126.918 47.616 126.854 46.784 126.854 45.952C126.854 45.056 126.694 44.256 126.374 43.552C126.182 42.912 125.958 42.336 125.702 41.824C125.51 41.248 125.254 40.64 124.934 40C124.87 39.872 124.806 39.808 124.742 39.808C124.678 39.744 124.614 39.68 124.55 39.616L123.878 39.328C123.174 38.88 122.31 38.56 121.286 38.368H120.902L118.79 38.656C117.51 38.848 116.486 39.296 115.718 40C113.862 41.856 112.646 44.32 112.07 47.392C111.686 47.968 111.462 48.576 111.398 49.216C111.334 49.792 111.238 50.368 111.11 50.944C110.982 51.648 110.886 52.384 110.822 53.152C110.822 53.856 110.79 54.56 110.726 55.264C110.726 55.776 110.63 56.288 110.438 56.8C110.31 57.312 110.31 57.792 110.438 58.24C110.438 58.368 110.406 58.656 110.342 59.104C110.342 59.552 110.31 60.032 110.246 60.544C110.246 61.056 110.214 61.536 110.15 61.984C110.15 62.432 110.15 62.72 110.15 62.848C110.022 63.104 109.958 63.616 109.958 64.384C109.958 65.152 109.926 65.6 109.862 65.728C109.542 65.728 109.158 65.76 108.71 65.824C108.326 65.952 107.91 66.08 107.462 66.208C107.078 66.336 106.63 66.368 106.118 66.304C105.606 66.24 105.126 66.144 104.678 66.016C103.718 65.824 103.014 65.728 102.566 65.728C102.118 65.728 101.542 65.632 100.838 65.44C100.838 65.056 100.806 64.576 100.742 64C100.742 63.36 100.678 62.72 100.55 62.08C100.486 61.376 100.422 60.704 100.358 60.064C100.358 59.424 100.358 58.944 100.358 58.624C100.358 58.432 100.326 58.112 100.262 57.664C100.262 57.152 100.23 56.64 100.166 56.128C100.166 55.552 100.134 55.04 100.07 54.592C100.006 54.08 99.9741 53.728 99.9741 53.536C99.9101 52.896 99.8781 52.32 99.8781 51.808C99.8781 51.296 99.8781 50.72 99.8781 50.08C99.9421 49.44 99.9741 48.832 99.9741 48.256C99.9741 47.68 99.9741 47.104 99.9741 46.528V38.56C99.9741 38.368 99.9741 37.888 99.9741 37.12C100.038 36.288 100.07 35.424 100.07 34.528C100.134 33.632 100.166 32.8 100.166 32.032C100.23 31.2 100.262 30.688 100.262 30.496C100.582 30.496 100.998 30.464 101.51 30.4C102.022 30.336 102.438 30.304 102.758 30.304C103.398 30.304 103.974 30.304 104.486 30.304C105.062 30.24 105.638 30.208 106.214 30.208C106.854 30.208 107.174 30.208 107.174 30.208C107.174 30.144 107.302 30.144 107.558 30.208C107.75 30.784 107.814 31.168 107.75 31.36C107.75 31.488 107.814 31.776 107.942 32.224C108.006 32.544 108.07 32.928 108.134 33.376C108.262 33.824 108.326 34.208 108.326 34.528V35.008C108.902 34.432 109.478 33.984 110.054 33.664C110.63 33.28 111.078 32.928 111.398 32.608C112.294 31.904 113.222 31.424 114.182 31.168C115.142 30.912 116.23 30.688 117.446 30.496L121.766 30.016H122.438C123.398 30.208 124.262 30.432 125.03 30.688C125.798 30.88 126.598 31.232 127.43 31.744L129.83 33.856C130.214 34.112 130.47 34.336 130.598 34.528C130.918 34.784 131.206 35.104 131.462 35.488C131.782 35.808 132.07 36.288 132.326 36.928C132.646 36.608 132.934 36.32 133.19 36.064C133.446 35.744 133.734 35.424 134.054 35.104C134.182 34.976 134.342 34.848 134.534 34.72C134.79 34.592 135.078 34.464 135.398 34.336C135.91 34.016 136.294 33.76 136.55 33.568C136.806 33.312 137.19 33.056 137.702 32.8C138.022 32.672 138.374 32.544 138.758 32.416C139.206 32.288 139.59 32.128 139.91 31.936C141.446 31.296 142.822 31.168 144.038 31.552C145.318 31.936 146.566 32.288 147.782 32.608C148.742 32.928 149.542 33.408 150.182 34.048C150.886 34.688 151.558 35.456 152.198 36.352L154.022 40C154.342 40.96 154.63 41.92 154.886 42.88C155.206 43.776 155.366 44.704 155.366 45.664C155.622 46.88 155.878 48.128 156.134 49.408C156.39 50.624 156.518 52 156.518 53.536C156.838 54.496 156.934 55.552 156.806 56.704C156.678 57.856 156.774 58.88 157.094 59.776V64.768C156.454 64.768 155.942 64.864 155.558 65.056C155.238 65.312 154.726 65.44 154.022 65.44C153.702 65.44 153.286 65.472 152.774 65.536C152.262 65.664 151.846 65.792 151.526 65.92C151.206 65.92 150.918 65.888 150.662 65.824C150.47 65.824 150.374 65.696 150.374 65.44V62.848ZM194.37 45.568C194.37 45.888 194.21 46.208 193.89 46.528C193.698 46.72 193.41 46.848 193.026 46.912C192.642 46.976 192.29 47.008 191.97 47.008C191.522 47.136 190.978 47.2 190.338 47.2C189.698 47.2 189.154 47.2 188.706 47.2C187.81 47.2 187.138 47.232 186.69 47.296C186.242 47.296 185.506 47.36 184.482 47.488L178.722 47.968V49.12C178.722 49.824 178.818 50.528 179.01 51.232C179.202 51.872 179.554 52.544 180.066 53.248C180.386 53.76 180.77 54.24 181.218 54.688C181.666 55.136 182.114 55.424 182.562 55.552C182.946 55.68 183.298 55.808 183.618 55.936C183.938 56.064 184.226 56.192 184.482 56.32C184.802 56.384 185.09 56.384 185.346 56.32C187.074 56.32 188.322 56.128 189.09 55.744C189.922 55.36 190.914 54.88 192.066 54.304C192.322 54.304 192.578 54.176 192.834 53.92C193.154 53.664 193.378 53.504 193.506 53.44C193.826 53.312 194.274 52.992 194.85 52.48C195.49 51.968 195.97 51.648 196.29 51.52C196.482 51.648 196.546 52.096 196.482 52.864C196.418 53.568 196.45 54.24 196.578 54.88V55.936V57.856C196.258 58.24 196.002 58.528 195.81 58.72C195.682 58.848 195.554 58.976 195.426 59.104C195.362 59.232 195.234 59.392 195.042 59.584C194.85 59.776 194.562 60.064 194.178 60.448C193.026 61.6 191.81 62.368 190.53 62.752C189.826 63.136 189.058 63.424 188.226 63.616C187.394 63.744 186.722 63.904 186.21 64.096C185.89 64.16 185.602 64.192 185.346 64.192C185.09 64.256 184.834 64.288 184.578 64.288H183.81C182.594 64.288 181.41 64.256 180.258 64.192C179.106 64.192 177.89 63.872 176.61 63.232C176.162 63.296 175.522 63.168 174.69 62.848C173.922 62.528 173.41 62.208 173.154 61.888C172.45 61.504 171.81 61.024 171.234 60.448C170.722 59.872 170.146 59.36 169.506 58.912C168.61 58.272 167.97 57.6 167.586 56.896C167.202 56.192 166.85 55.456 166.53 54.688C166.21 54.112 165.922 53.472 165.666 52.768C165.41 52.064 165.154 51.36 164.898 50.656C164.898 49.952 164.866 49.28 164.802 48.64C164.802 48 164.802 47.36 164.802 46.72V43.168C164.802 42.016 165.026 40.64 165.474 39.04C165.986 37.44 166.594 36.064 167.298 34.912C167.49 34.656 167.714 34.4 167.97 34.144C168.162 33.888 168.386 33.632 168.642 33.376C168.962 33.12 169.282 32.832 169.602 32.512C169.794 32.448 169.986 32.352 170.178 32.224C170.434 32.096 170.786 31.904 171.234 31.648C171.426 31.52 171.65 31.296 171.906 30.976C172.226 30.656 172.642 30.432 173.154 30.304C173.858 30.048 174.53 29.792 175.17 29.536C175.81 29.216 176.29 29.056 176.61 29.056C177.058 29.056 177.858 29.088 179.01 29.152C180.226 29.216 181.378 29.28 182.466 29.344C183.042 29.408 183.522 29.504 183.906 29.632C184.29 29.76 184.578 29.824 184.77 29.824C185.282 29.888 185.698 29.952 186.018 30.016C186.402 30.08 186.786 30.176 187.17 30.304C188.322 30.688 189.154 31.104 189.666 31.552C190.242 31.936 190.722 32.352 191.106 32.8C191.362 33.12 191.586 33.504 191.778 33.952C192.034 34.336 192.29 34.688 192.546 35.008C192.866 35.392 193.154 35.936 193.41 36.64C193.73 37.28 193.954 37.92 194.082 38.56C194.21 39.072 194.306 39.744 194.37 40.576C194.434 41.408 194.466 42.144 194.466 42.784C194.466 43.424 194.434 43.904 194.37 44.224C194.37 44.544 194.37 44.992 194.37 45.568ZM186.114 40C186.114 39.872 186.114 39.648 186.114 39.328C186.114 38.944 186.05 38.688 185.922 38.56C185.41 37.728 184.674 37.248 183.714 37.12C182.818 36.928 182.018 36.896 181.314 37.024C180.866 37.152 180.578 37.312 180.45 37.504C180.322 37.696 180.13 37.984 179.874 38.368C179.746 38.496 179.65 38.624 179.586 38.752C179.522 38.88 179.426 39.008 179.298 39.136C179.17 39.264 179.074 39.456 179.01 39.712C179.01 39.904 178.978 40.096 178.914 40.288C178.786 40.608 178.722 40.832 178.722 40.96C178.722 41.088 178.786 41.408 178.914 41.92C179.17 42.048 179.65 42.176 180.354 42.304C181.122 42.368 181.89 42.4 182.658 42.4C183.49 42.4 184.258 42.368 184.962 42.304C185.73 42.176 186.242 42.048 186.498 41.92C186.562 41.856 186.498 41.696 186.306 41.44C186.178 41.12 186.114 40.64 186.114 40ZM259.017 30.304C259.081 28.768 259.209 26.976 259.401 24.928C259.593 22.816 259.785 20.992 259.977 19.456C259.849 18.496 259.849 17.536 259.977 16.576C260.105 15.552 260.137 14.56 260.073 13.6C260.073 13.216 260.073 12.832 260.073 12.448C260.137 12 260.169 11.584 260.169 11.2C260.489 9.664 260.649 8.096 260.649 6.496C260.649 4.896 260.809 3.136 261.129 1.216V0.0639992C262.409 0.383999 263.593 0.671999 264.681 0.927999C265.833 1.12 267.017 1.216 268.233 1.216C267.913 2.17599 267.721 3.136 267.657 4.096C267.593 5.056 267.561 5.984 267.561 6.88C267.561 8.736 267.465 10.592 267.273 12.448C267.145 14.24 267.081 16.064 267.081 17.92C267.081 18.304 267.049 18.72 266.985 19.168C266.921 19.552 266.889 19.936 266.889 20.32C266.953 20.832 266.953 21.472 266.889 22.24C266.889 23.008 266.889 23.808 266.889 24.64C266.889 25.472 266.889 26.272 266.889 27.04C266.953 27.808 267.049 28.448 267.177 28.96C266.985 30.496 266.921 32.064 266.985 33.664C267.113 35.2 267.145 36.736 267.081 38.272C266.953 39.36 266.921 40.416 266.985 41.44C267.049 42.4 267.081 43.424 267.081 44.512C267.081 45.6 267.081 46.688 267.081 47.776C267.145 48.864 267.177 49.952 267.177 51.04C267.177 52.128 267.081 53.44 266.889 54.976C266.697 56.448 266.633 57.728 266.697 58.816C266.697 60.352 266.633 61.696 266.505 62.848C266.441 64 266.409 65.216 266.409 66.496C266.409 67.072 266.249 67.424 265.929 67.552C265.609 67.744 265.097 67.84 264.393 67.84C263.497 67.968 262.697 68 261.993 67.936C261.289 67.872 260.489 67.84 259.593 67.84C258.953 67.84 258.569 67.712 258.441 67.456C258.377 67.2 258.345 66.944 258.345 66.688V64.96C258.281 64.896 258.217 64.8 258.153 64.672C258.089 64.544 258.025 64.448 257.961 64.384C257.897 64.384 257.833 64.352 257.769 64.288C257.449 64.608 257.001 64.832 256.425 64.96C255.849 65.088 255.273 65.312 254.697 65.632C253.737 66.272 252.649 66.72 251.433 66.976C250.281 67.232 249.065 67.36 247.785 67.36C246.889 67.36 246.089 67.328 245.385 67.264C244.745 67.264 244.137 67.136 243.561 66.88C243.241 66.88 243.017 66.752 242.889 66.496C242.825 66.304 242.633 66.208 242.313 66.208C241.033 65.568 239.913 64.896 238.953 64.192C237.993 63.552 237.065 62.784 236.169 61.888C235.209 60.928 234.473 59.968 233.961 59.008C233.513 58.048 232.969 56.928 232.329 55.648C232.073 54.752 231.881 53.856 231.753 52.96C231.689 52 231.497 51.072 231.177 50.176C231.177 48.896 231.209 47.68 231.273 46.528C231.401 45.312 231.753 44.256 232.329 43.36C232.649 41.76 233.257 40.352 234.153 39.136C235.049 37.92 236.105 36.864 237.321 35.968C237.961 35.328 238.697 34.816 239.529 34.432C240.425 34.048 241.353 33.696 242.313 33.376C242.953 33.376 243.657 33.376 244.425 33.376C245.257 33.312 245.993 33.12 246.633 32.8C247.529 32.8 248.329 32.832 249.033 32.896C249.801 32.896 250.665 33.056 251.625 33.376C251.881 33.696 252.265 33.92 252.777 34.048C253.289 34.176 253.705 34.4 254.025 34.72C254.601 35.04 255.209 35.36 255.849 35.68C256.489 35.936 257.129 36.192 257.769 36.448C258.089 36.192 258.249 35.808 258.249 35.296C258.249 34.72 258.409 34.08 258.729 33.376C258.729 33.056 258.761 32.64 258.825 32.128C258.953 31.616 259.017 31.008 259.017 30.304ZM247.785 42.112C246.569 42.752 245.641 43.744 245.001 45.088C244.425 46.368 244.137 47.616 244.137 48.832C244.137 49.536 244.233 50.08 244.425 50.464C244.617 50.848 244.713 51.328 244.713 51.904C244.713 52.864 245.001 53.664 245.577 54.304C246.153 54.944 246.889 55.616 247.785 56.32C248.553 56.96 249.609 56.96 250.953 56.32C251.529 55.616 252.169 54.944 252.873 54.304C253.641 53.6 254.025 52.64 254.025 51.424C254.345 50.144 254.409 49.024 254.217 48.064C254.025 47.104 253.769 46.144 253.449 45.184C253.129 44.288 252.553 43.552 251.721 42.976C250.889 42.4 249.993 42.112 249.033 42.112H247.785ZM303.589 45.568C303.589 45.888 303.429 46.208 303.109 46.528C302.917 46.72 302.629 46.848 302.245 46.912C301.861 46.976 301.509 47.008 301.189 47.008C300.741 47.136 300.197 47.2 299.557 47.2C298.917 47.2 298.373 47.2 297.925 47.2C297.029 47.2 296.357 47.232 295.909 47.296C295.461 47.296 294.725 47.36 293.701 47.488L287.941 47.968V49.12C287.941 49.824 288.037 50.528 288.229 51.232C288.421 51.872 288.773 52.544 289.285 53.248C289.605 53.76 289.989 54.24 290.437 54.688C290.885 55.136 291.333 55.424 291.781 55.552C292.165 55.68 292.517 55.808 292.837 55.936C293.157 56.064 293.445 56.192 293.701 56.32C294.021 56.384 294.309 56.384 294.565 56.32C296.293 56.32 297.541 56.128 298.309 55.744C299.141 55.36 300.133 54.88 301.285 54.304C301.541 54.304 301.797 54.176 302.053 53.92C302.373 53.664 302.597 53.504 302.725 53.44C303.045 53.312 303.493 52.992 304.069 52.48C304.709 51.968 305.189 51.648 305.509 51.52C305.701 51.648 305.765 52.096 305.701 52.864C305.637 53.568 305.669 54.24 305.797 54.88V55.936V57.856C305.477 58.24 305.221 58.528 305.029 58.72C304.901 58.848 304.773 58.976 304.645 59.104C304.581 59.232 304.453 59.392 304.261 59.584C304.069 59.776 303.781 60.064 303.397 60.448C302.245 61.6 301.029 62.368 299.749 62.752C299.045 63.136 298.277 63.424 297.445 63.616C296.613 63.744 295.941 63.904 295.429 64.096C295.109 64.16 294.821 64.192 294.565 64.192C294.309 64.256 294.053 64.288 293.797 64.288H293.029C291.813 64.288 290.629 64.256 289.477 64.192C288.325 64.192 287.109 63.872 285.829 63.232C285.381 63.296 284.741 63.168 283.909 62.848C283.141 62.528 282.629 62.208 282.373 61.888C281.669 61.504 281.029 61.024 280.453 60.448C279.941 59.872 279.365 59.36 278.725 58.912C277.829 58.272 277.189 57.6 276.805 56.896C276.421 56.192 276.069 55.456 275.749 54.688C275.429 54.112 275.141 53.472 274.885 52.768C274.629 52.064 274.373 51.36 274.117 50.656C274.117 49.952 274.085 49.28 274.021 48.64C274.021 48 274.021 47.36 274.021 46.72V43.168C274.021 42.016 274.245 40.64 274.693 39.04C275.205 37.44 275.813 36.064 276.517 34.912C276.709 34.656 276.933 34.4 277.189 34.144C277.381 33.888 277.605 33.632 277.861 33.376C278.181 33.12 278.501 32.832 278.821 32.512C279.013 32.448 279.205 32.352 279.397 32.224C279.653 32.096 280.005 31.904 280.453 31.648C280.645 31.52 280.869 31.296 281.125 30.976C281.445 30.656 281.861 30.432 282.373 30.304C283.077 30.048 283.749 29.792 284.389 29.536C285.029 29.216 285.509 29.056 285.829 29.056C286.277 29.056 287.077 29.088 288.229 29.152C289.445 29.216 290.597 29.28 291.685 29.344C292.261 29.408 292.741 29.504 293.125 29.632C293.509 29.76 293.797 29.824 293.989 29.824C294.501 29.888 294.917 29.952 295.237 30.016C295.621 30.08 296.005 30.176 296.389 30.304C297.541 30.688 298.373 31.104 298.885 31.552C299.461 31.936 299.941 32.352 300.325 32.8C300.581 33.12 300.805 33.504 300.997 33.952C301.253 34.336 301.509 34.688 301.765 35.008C302.085 35.392 302.373 35.936 302.629 36.64C302.949 37.28 303.173 37.92 303.301 38.56C303.429 39.072 303.525 39.744 303.589 40.576C303.653 41.408 303.685 42.144 303.685 42.784C303.685 43.424 303.653 43.904 303.589 44.224C303.589 44.544 303.589 44.992 303.589 45.568ZM295.333 40C295.333 39.872 295.333 39.648 295.333 39.328C295.333 38.944 295.269 38.688 295.141 38.56C294.629 37.728 293.893 37.248 292.933 37.12C292.037 36.928 291.237 36.896 290.533 37.024C290.085 37.152 289.797 37.312 289.669 37.504C289.541 37.696 289.349 37.984 289.093 38.368C288.965 38.496 288.869 38.624 288.805 38.752C288.741 38.88 288.645 39.008 288.517 39.136C288.389 39.264 288.293 39.456 288.229 39.712C288.229 39.904 288.197 40.096 288.133 40.288C288.005 40.608 287.941 40.832 287.941 40.96C287.941 41.088 288.005 41.408 288.133 41.92C288.389 42.048 288.869 42.176 289.573 42.304C290.341 42.368 291.109 42.4 291.877 42.4C292.709 42.4 293.477 42.368 294.181 42.304C294.949 42.176 295.461 42.048 295.717 41.92C295.781 41.856 295.717 41.696 295.525 41.44C295.397 41.12 295.333 40.64 295.333 40ZM330.622 51.52C330.686 51.648 330.782 51.872 330.91 52.192C331.038 52.448 331.166 52.608 331.294 52.672C331.614 52.672 331.806 52.544 331.87 52.288C331.998 51.968 332.222 51.616 332.542 51.232C333.374 49.568 334.078 48.16 334.654 47.008C335.294 45.792 336.03 44.416 336.862 42.88L338.686 38.464C338.942 38.016 339.294 37.408 339.742 36.64C340.254 35.808 340.574 35.168 340.702 34.72C340.83 34.336 340.926 34.048 340.99 33.856C341.118 33.664 341.246 33.344 341.374 32.896C341.374 32.832 341.438 32.64 341.566 32.32C341.758 32 341.95 31.68 342.142 31.36C342.334 31.04 342.494 30.752 342.622 30.496C342.814 30.176 342.942 29.952 343.006 29.824C344.286 30.144 345.438 30.496 346.462 30.88C347.486 31.2 348.606 31.68 349.822 32.32C349.502 32.896 349.246 33.376 349.054 33.76C348.926 34.08 348.798 34.432 348.67 34.816C348.286 35.584 347.806 36.384 347.23 37.216C346.718 37.984 346.398 38.496 346.27 38.752L344.542 42.88C344.03 43.84 343.454 44.8 342.814 45.76C342.75 45.888 342.654 46.08 342.526 46.336C342.462 46.528 342.366 46.688 342.238 46.816C341.918 47.328 341.534 48.064 341.086 49.024C340.638 49.984 340.126 51.008 339.55 52.096C339.038 53.12 338.526 54.112 338.014 55.072C337.566 55.968 337.182 56.608 336.862 56.992C336.35 57.952 335.902 58.784 335.518 59.488C335.198 60.192 334.814 61.024 334.366 61.984C334.302 62.304 334.174 62.624 333.982 62.944C333.854 63.2 333.726 63.488 333.598 63.808C333.47 64.128 333.342 64.448 333.214 64.768C333.086 65.088 332.862 65.408 332.542 65.728C332.414 65.792 332.126 65.856 331.678 65.92C331.23 65.984 330.75 66.048 330.238 66.112C329.726 66.176 329.246 66.208 328.798 66.208C328.35 66.272 328.03 66.272 327.838 66.208C327.71 66.144 327.55 65.984 327.358 65.728C327.166 65.472 326.974 65.184 326.782 64.864C326.654 64.608 326.526 64.32 326.398 64C326.27 63.744 326.174 63.584 326.11 63.52L324.478 61.312C324.286 60.992 323.902 60.32 323.326 59.296C322.814 58.208 322.206 57.216 321.502 56.32L319.582 52.672C319.39 52.224 319.102 51.648 318.718 50.944C318.334 50.176 317.982 49.6 317.662 49.216C317.406 48.896 317.214 48.544 317.086 48.16C317.022 47.776 316.83 47.232 316.51 46.528C316.19 46.208 315.806 45.568 315.358 44.608C314.91 43.584 314.366 42.752 313.726 42.112C313.598 41.92 313.374 41.568 313.054 41.056C312.734 40.544 312.414 40.096 312.094 39.712C311.774 39.008 311.422 38.336 311.038 37.696C310.654 37.056 310.206 36.288 309.694 35.392C309.758 35.328 309.822 35.232 309.886 35.104C309.95 35.04 310.142 34.88 310.462 34.624C310.846 34.304 311.262 33.952 311.71 33.568C312.158 33.184 312.83 32.8 313.726 32.416L317.086 29.824C317.214 29.824 317.342 29.856 317.47 29.92C317.662 29.984 317.822 30.048 317.95 30.112L318.238 30.4C319.07 31.232 319.646 32.096 319.966 32.992C320.35 33.888 320.894 34.784 321.598 35.68C321.79 36 322.014 36.448 322.27 37.024C322.59 37.6 322.878 38.208 323.134 38.848C323.454 39.488 323.774 40.096 324.094 40.672C324.414 41.184 324.67 41.6 324.862 41.92C325.886 43.264 326.878 44.864 327.838 46.72C328.862 48.576 329.79 50.176 330.622 51.52Z" fill="white"/>
</svg>
