<svg width="444" height="404" viewBox="0 0 444 404" fill="none" xmlns="http://www.w3.org/2000/svg">
<path d="M67.0945 0.455994H86.2945C92.5238 0.455994 97.2172 1.52266 100.375 3.656C103.617 5.78933 105.239 9.50133 105.239 14.792V85.704C105.239 88.6907 104.769 90.6533 103.831 91.592C102.977 92.5307 101.1 93 98.1985 93H84.7585V16.328C84.7585 14.9627 84.5452 14.024 84.1185 13.512C83.7772 12.9147 82.8385 12.616 81.3025 12.616H67.0945V0.455994ZM20.6305 93H7.1905C4.28917 93 2.36917 92.5307 1.4305 91.592C0.577167 90.6533 0.1505 88.6907 0.1505 85.704V5.576C0.1505 4.04 0.577167 2.80266 1.4305 1.864C2.28383 0.925329 3.39317 0.455994 4.7585 0.455994H20.6305V93ZM25.8785 0.455994H58.6465C60.0118 0.455994 61.1212 0.925329 61.9745 1.864C62.8278 2.80266 63.2545 4.04 63.2545 5.576V83.656H49.9425C47.3825 83.656 45.5478 82.9733 44.4385 81.608C43.3292 80.1573 42.7745 77.8533 42.7745 74.696V16.328C42.7745 14.9627 42.5612 14.024 42.1345 13.512C41.7932 12.9147 40.8545 12.616 39.3185 12.616H25.8785V0.455994ZM144.396 29H156.812C160.054 29 162.7 29.1707 164.748 29.512C166.796 29.768 168.588 30.408 170.124 31.432C171.66 32.456 172.812 33.608 173.58 34.888C174.348 36.0827 174.945 38.0453 175.372 40.776C176.054 44.616 176.396 49.992 176.396 56.904C176.396 63.816 176.353 68.5093 176.268 70.984C176.182 73.3733 176.012 75.9333 175.756 78.664C175.585 81.3947 175.201 83.4 174.604 84.68C174.092 85.96 173.366 87.2827 172.428 88.648C171.574 89.928 170.422 90.824 168.972 91.336C165.814 92.4453 161.761 93 156.812 93H156.556V44.744C156.556 44.5733 156.556 44.0613 156.556 43.208C156.556 42.3547 156.513 41.6293 156.428 41.032C156.001 39.4107 154.294 38.6 151.308 38.6H144.396V29ZM140.556 29V77.256C140.556 77.4267 140.556 77.9387 140.556 78.792C140.556 79.6453 140.641 80.3707 140.812 80.968C141.153 82.5893 142.817 83.4 145.804 83.4H152.716V93H140.3C137.057 93 134.412 92.872 132.364 92.616C130.316 92.2747 128.524 91.592 126.988 90.568C125.452 89.544 124.3 88.4347 123.532 87.24C122.764 85.96 122.124 83.9547 121.612 81.224C121.014 77.384 120.716 72.008 120.716 65.096C120.716 58.184 120.758 53.5333 120.844 51.144C120.929 48.6693 121.057 46.0667 121.228 43.336C121.484 40.6053 121.868 38.6 122.38 37.32C122.977 36.04 123.702 34.76 124.556 33.48C125.494 32.1147 126.689 31.176 128.14 30.664C131.297 29.5547 135.35 29 140.3 29H140.556ZM221.466 38.6H214.554C212.335 38.6 210.884 38.8987 210.202 39.496C209.604 40.0933 209.306 41.0747 209.306 42.44V79.688C209.306 80.968 209.604 81.9067 210.202 82.504C210.884 83.1013 212.335 83.4 214.554 83.4H221.466V93H209.05C200.602 93 195.396 91.5493 193.434 88.648C192.495 87.2827 191.727 85.96 191.13 84.68C190.618 83.4 190.276 81.3947 190.106 78.664C189.679 73.7147 189.466 68.2107 189.466 62.152C189.466 56.0933 189.508 51.7413 189.594 49.096C189.679 46.3653 189.935 43.6347 190.362 40.904C190.874 38.088 191.514 36.0827 192.282 34.888C193.05 33.608 194.202 32.456 195.738 31.432C197.274 30.408 199.066 29.768 201.114 29.512C203.162 29.1707 205.807 29 209.05 29H221.466V38.6ZM225.306 0.455994H233.114C236.868 0.455994 239.684 1.39466 241.562 3.272C243.524 5.064 244.506 7.41066 244.506 10.312V83.144C244.506 86.0453 243.524 88.4347 241.562 90.312C239.684 92.104 236.868 93 233.114 93H225.306V0.455994ZM278.181 93H277.925C269.477 93 264.271 91.5493 262.309 88.648C261.37 87.2827 260.602 85.96 260.005 84.68C259.493 83.4 259.151 81.3947 258.981 78.664C258.554 73.7147 258.341 68.2107 258.341 62.152C258.341 56.0933 258.383 51.7413 258.469 49.096C258.554 46.3653 258.81 43.6347 259.237 40.904C259.749 38.088 260.389 36.0827 261.157 34.888C261.925 33.608 263.077 32.456 264.613 31.432C266.149 30.408 267.941 29.768 269.989 29.512C272.037 29.1707 274.682 29 277.925 29H278.181V93ZM312.229 72.776V79.304C312.229 88.4347 307.578 93 298.277 93H282.149V83.4H289.061C290.853 83.4 291.962 83.144 292.389 82.632C292.815 82.0347 293.029 81.0107 293.029 79.56V75.464C293.029 74.184 293.157 73.4587 293.413 73.288C293.754 73.1173 293.967 73.032 294.053 73.032C294.138 72.9467 294.351 72.904 294.693 72.904C295.119 72.8187 295.418 72.776 295.589 72.776C301.135 72.776 306.682 72.776 312.229 72.776ZM282.149 29H296.997C302.885 29 306.895 30.152 309.029 32.456C311.162 34.76 312.229 38.1733 312.229 42.696V53.96C312.229 61.64 308.047 65.48 299.685 65.48H280.869V55.88H287.781C289.829 55.88 291.194 55.624 291.877 55.112C292.645 54.6 293.029 53.6187 293.029 52.168V42.44C293.029 40.9893 292.815 40.008 292.389 39.496C291.962 38.8987 290.853 38.6 289.061 38.6H282.149V29ZM280.229 25.16V7.752C280.229 3.912 280.442 1.736 280.869 1.224C281.295 0.711995 283.13 0.455994 286.373 0.455994H301.221L289.444 25.16H280.229ZM353.001 92.104C353.001 92.7013 352.787 93 352.361 93H339.433C334.654 93 331.113 91.8907 328.809 89.672C326.59 87.4533 325.481 83.8267 325.481 78.792V0.583992H333.289C337.043 0.583992 339.859 1.52266 341.737 3.39999C343.699 5.192 344.681 7.53866 344.681 10.44V78.536C344.681 81.1813 345.235 82.6747 346.345 83.016C346.942 83.272 347.753 83.4 348.777 83.4H351.977C352.659 83.4 353.001 83.6987 353.001 84.296V92.104ZM361.862 29.128H369.67C373.424 29.128 376.24 30.0667 378.118 31.944C380.08 33.736 381.062 36.0827 381.062 38.984V93H366.47C365.104 93 363.995 92.5307 363.142 91.592C362.288 90.6533 361.862 89.416 361.862 87.88V29.128ZM362.758 1.864C363.696 0.925329 366.427 0.455994 370.95 0.455994C375.472 0.455994 378.203 0.925329 379.142 1.864C380.08 2.71733 380.55 5.27733 380.55 9.544C380.55 13.8107 380.038 16.4133 379.014 17.352C378.075 18.2907 375.387 18.76 370.95 18.76C366.512 18.76 363.782 18.2907 362.758 17.352C361.819 16.4133 361.35 13.8107 361.35 9.544C361.35 5.27733 361.819 2.71733 362.758 1.864ZM443.481 60.616H395.737V46.536H443.481V60.616ZM70.335 184V207.424C70.335 208.875 70.5483 209.899 70.975 210.496C71.4017 211.008 72.511 211.264 74.303 211.264H81.471V220.864H65.087C55.7857 220.864 51.135 216.299 51.135 207.168V198.208C51.135 192.576 52.543 188.821 55.359 186.944C58.2603 184.981 63.2523 184 70.335 184ZM70.591 227.776V234.56C70.591 236.011 70.8043 237.035 71.231 237.632C71.6577 238.144 72.767 238.4 74.559 238.4H81.471V248H65.343C56.0417 248 51.391 243.435 51.391 234.304V230.464C51.391 229.184 51.519 228.459 51.775 228.288C52.1163 228.117 52.3297 228.032 52.415 228.032C52.5003 227.947 52.7137 227.904 53.055 227.904C53.4817 227.819 53.7377 227.776 53.823 227.776C59.455 227.776 65.0443 227.776 70.591 227.776ZM85.311 211.264H90.559C99.8603 211.264 104.511 215.829 104.511 224.96V233.792C104.511 239.424 103.06 243.221 100.159 245.184C97.343 247.061 92.3937 248 85.311 248V211.264ZM74.175 184H90.303C99.6043 184 104.255 188.565 104.255 197.696V204.352C98.5377 204.352 94.1857 204.352 91.199 204.352C88.2123 204.352 86.6763 204.352 86.591 204.352C86.5057 204.267 86.335 204.224 86.079 204.224C85.9083 204.139 85.7803 204.053 85.695 203.968C85.6097 203.883 85.5243 203.797 85.439 203.712C85.3537 203.541 85.311 203.371 85.311 203.2C85.1403 202.517 85.055 202.005 85.055 201.664V197.44C85.055 195.989 84.8417 195.008 84.415 194.496C83.9883 193.899 82.879 193.6 81.087 193.6H74.175V184ZM148.778 193.6H141.866C139.221 193.6 137.727 194.069 137.386 195.008C136.874 196.117 136.618 197.696 136.618 199.744V232.256C136.618 232.427 136.618 232.939 136.618 233.792C136.618 234.645 136.703 235.371 136.874 235.968C137.215 237.589 138.879 238.4 141.866 238.4H148.778V248H136.362C133.119 248 130.474 247.872 128.426 247.616C126.378 247.275 124.586 246.592 123.05 245.568C121.514 244.544 120.362 243.435 119.594 242.24C118.826 240.96 118.186 238.955 117.674 236.224C117.077 232.384 116.778 227.008 116.778 220.096C116.778 213.184 116.821 208.533 116.906 206.144C116.991 203.669 117.119 201.067 117.29 198.336C117.546 195.605 117.93 193.6 118.442 192.32C119.039 191.04 119.765 189.76 120.618 188.48C121.557 187.115 122.751 186.176 124.202 185.664C127.359 184.555 131.413 184 136.362 184H148.778V193.6ZM177.578 247.104C177.578 247.701 177.407 248 177.066 248H166.57C161.791 248 158.25 246.891 155.946 244.672C153.727 242.453 152.618 238.827 152.618 233.792V184H157.866C163.242 184 166.911 185.28 168.874 187.84C170.837 190.315 171.818 193.6 171.818 197.696V233.536C171.818 236.181 172.373 237.675 173.482 238.016C174.079 238.272 174.89 238.4 175.914 238.4H176.554C177.237 238.4 177.578 238.699 177.578 239.296V247.104ZM220.186 246.976C220.186 247.488 219.93 247.829 219.418 248H209.69C203.461 248 198.938 246.763 196.122 244.288C193.306 241.813 191.898 237.461 191.898 231.232V193.856H185.37C183.237 193.856 182.17 192.576 182.17 190.016V184H191.898V155.456H199.706C203.461 155.456 206.277 156.395 208.154 158.272C210.117 160.149 211.098 162.539 211.098 165.44V233.536C211.098 236.693 212.89 238.272 216.474 238.272H219.162C219.845 238.272 220.186 238.571 220.186 239.168V246.976ZM224.154 184V190.016C224.154 192.576 223.087 193.856 220.954 193.856H214.298V184H224.154ZM232.549 184.128H240.357C244.112 184.128 246.928 185.067 248.805 186.944C250.768 188.736 251.749 191.083 251.749 193.984V248H237.157C235.792 248 234.682 247.531 233.829 246.592C232.976 245.653 232.549 244.416 232.549 242.88V184.128ZM233.445 156.864C234.384 155.925 237.114 155.456 241.637 155.456C246.16 155.456 248.89 155.925 249.829 156.864C250.768 157.717 251.237 160.277 251.237 164.544C251.237 168.811 250.725 171.413 249.701 172.352C248.762 173.291 246.074 173.76 241.637 173.76C237.2 173.76 234.469 173.291 233.445 172.352C232.506 171.413 232.037 168.811 232.037 164.544C232.037 160.277 232.506 157.717 233.445 156.864ZM289.208 184H301.624C304.867 184 307.512 184.171 309.56 184.512C311.608 184.768 313.4 185.408 314.936 186.432C316.472 187.456 317.624 188.608 318.392 189.888C319.16 191.083 319.757 193.045 320.184 195.776C320.867 199.616 321.208 204.992 321.208 211.904C321.208 218.816 321.165 223.509 321.08 225.984C320.995 228.373 320.824 230.933 320.568 233.664C320.397 236.395 320.013 238.4 319.416 239.68C318.904 240.96 318.179 242.283 317.24 243.648C316.387 244.928 315.235 245.824 313.784 246.336C310.627 247.445 306.573 248 301.624 248H301.368V199.744C301.368 199.573 301.368 199.061 301.368 198.208C301.368 197.355 301.325 196.629 301.24 196.032C300.813 194.411 299.107 193.6 296.12 193.6H289.208V184ZM285.368 184V232.256C285.368 232.427 285.368 232.939 285.368 233.792C285.368 234.645 285.453 235.371 285.624 235.968C285.965 237.589 287.629 238.4 290.616 238.4H297.528V248H285.112C281.869 248 279.224 247.872 277.176 247.616C275.128 247.275 273.336 246.592 271.8 245.568C270.264 244.544 269.112 243.435 268.344 242.24C267.576 240.96 266.936 238.955 266.424 236.224C265.827 232.384 265.528 227.008 265.528 220.096C265.528 213.184 265.571 208.533 265.656 206.144C265.741 203.669 265.869 201.067 266.04 198.336C266.296 195.605 266.68 193.6 267.192 192.32C267.789 191.04 268.515 189.76 269.368 188.48C270.307 187.115 271.501 186.176 272.952 185.664C276.109 184.555 280.163 184 285.112 184H285.368ZM357.574 184H375.494C384.795 184 389.446 188.565 389.446 197.696V248H374.854C373.489 248 372.379 247.531 371.526 246.592C370.673 245.653 370.246 244.416 370.246 242.88V197.44C370.246 196.075 369.905 195.093 369.222 194.496C368.625 193.899 367.217 193.6 364.998 193.6H357.574V184ZM335.174 184H342.982C346.737 184 349.553 184.939 351.43 186.816C353.393 188.608 354.374 190.955 354.374 193.856V248H339.782C338.417 248 337.307 247.531 336.454 246.592C335.601 245.653 335.174 244.416 335.174 242.88V184ZM191.268 310.456H202.148C205.647 310.456 208.121 311.224 209.572 312.76C211.023 314.211 211.748 316.771 211.748 320.44V343.864C211.748 347.789 210.724 350.733 208.676 352.696C210.809 354.573 211.876 357.944 211.876 362.808V391.992C211.876 396.771 211.193 399.8 209.828 401.08C208.463 402.36 205.519 403 200.996 403H191.396V365.88C191.396 364.515 191.183 363.576 190.756 363.064C190.415 362.467 189.476 362.168 187.94 362.168H174.116V350.008H183.588L187.812 349.88C189.775 349.88 190.884 349.453 191.14 348.6C191.225 348.344 191.268 347.96 191.268 347.448V310.456ZM186.276 322.616H174.116C172.324 322.616 171.215 322.915 170.788 323.512C170.361 324.024 170.148 325.005 170.148 326.456V340.664H156.068C152.911 340.664 151.033 340.408 150.436 339.896C149.924 339.384 149.668 337.805 149.668 335.16V324.152C149.668 319.459 150.351 316.003 151.716 313.784C153.167 311.565 156.281 310.456 161.06 310.456H186.276V322.616ZM170.148 372.792V387C170.148 388.451 170.361 389.475 170.788 390.072C171.215 390.584 172.324 390.84 174.116 390.84H186.276V403H161.06C156.281 403 153.167 401.891 151.716 399.672C150.351 397.453 149.668 393.997 149.668 389.304V378.296C149.668 375.651 149.924 374.072 150.436 373.56C151.033 373.048 152.911 372.792 156.068 372.792H170.148ZM290.638 356.536L290.766 378.168C290.766 388.323 289.486 395.021 286.926 398.264C284.366 401.421 279.715 403 272.974 403H254.158V390.84H263.63C265.763 390.84 267.171 390.584 267.854 390.072C268.537 389.56 268.878 388.579 268.878 387.128V326.456C268.878 324.92 268.537 323.896 267.854 323.384C267.171 322.872 265.763 322.616 263.63 322.616H254.158V310.456H274.254C280.483 310.456 284.793 311.907 287.182 314.808C289.657 317.624 290.894 323.171 290.894 331.448L290.638 356.536ZM250.318 403.128H236.878C234.062 403.128 232.185 402.659 231.246 401.72C230.307 400.696 229.838 398.733 229.838 395.832V317.752C229.838 314.851 230.307 312.931 231.246 311.992C232.185 310.968 234.062 310.456 236.878 310.456H250.318V403.128Z" fill="white"/>
</svg>
