<?xml version="1.0" encoding="UTF-8" standalone="no"?>
<!-- Created with Inkscape (http://www.inkscape.org/) -->

<svg
   width="223.48093mm"
   height="232.57176mm"
   viewBox="0 0 223.48093 232.57176"
   version="1.1"
   id="svg1"
   xml:space="preserve"
   xmlns="http://www.w3.org/2000/svg"
   xmlns:svg="http://www.w3.org/2000/svg"><defs
     id="defs1" /><g
     id="layer1"
     transform="translate(82.045121,-57.303945)"><path
       style="fill:#000000"
       d="m 9.0799349,289.04637 c -2.29097,-0.45089 -5.75562,-1.24727 -7.69924,-1.76974 -1.94360999,-0.52247 -5.8421,-1.77824 -8.66331,-2.79061 -2.8212099,-1.01236 -7.1502299,-2.78453 -9.6200399,-3.93816 -2.46982,-1.15362 -6.56231,-3.33292 -9.09443,-4.84287 -2.53212,-1.50995 -6.18232,-3.88537 -8.11156,-5.2787 -1.92924,-1.39332 -5.28348,-4.02081 -7.45387,-5.83885 -2.17039,-1.81804 -6.15526,-5.63274 -8.85527,-8.4771 -2.7,-2.84437 -6.01657,-6.58936 -7.37014,-8.32221 -1.35358,-1.73286 -3.70894,-5.01819 -5.23413,-7.30075 -1.5252,-2.28256 -4.06844,-6.51144 -5.65166,-9.39751 -1.58321,-2.88608 -3.85137,-7.60875 -5.04035,-10.49483 -1.18899,-2.88607 -2.86786,-7.50607 -3.73083,-10.26667 -0.86297,-2.76059 -1.96012,-6.66193 -2.43811,-8.66963 -0.478,-2.00771 -1.1763,-5.49838 -1.5518,-7.75704 -0.43688,-2.62794 -0.65401,-6.40692 -0.603,-10.49482 0.0438,-3.51349 0.14041,-5.25882 0.2146,-3.87853 0.0742,1.3803 0.34457,4.56297 0.60083,7.0726 0.25627,2.50963 0.95547,7.06738 1.55379,10.12834 0.59832,3.06096 1.6838,7.63837 2.41216,10.17203 0.72837,2.53366 2.21178,6.90791 3.29646,9.72056 1.08469,2.81265 3.15897,7.47524 4.60952,10.36132 1.45055,2.88607 4.28097,7.81408 6.28983,10.95111 2.00885,3.13704 5.2231,7.6549 7.14278,10.03968 1.91967,2.38478 5.78641,6.63309 8.59276,9.44068 2.80634,2.80759 7.32271,6.83326 10.03636,8.94594 2.71366,2.11268 7.00566,5.1396 9.53778,6.72647 2.53212,1.58688 6.97156,4.05213 9.86541,5.47833 2.89386,1.4262 6.93867,3.22296 8.9884899,3.9928 2.04981,0.76983 5.42653,1.93097 7.50381,2.58029 2.07729001,0.64933 6.03796,1.66854 8.8015,2.26492 2.7635401,0.59638 7.1805001,1.31485 9.8154601,1.5966 2.63497,0.28175 5.77739,0.57422 6.98316,0.64994 1.20578,0.0757 -0.76731,0.15534 -4.38462,0.17694 -4.63044,0.0277 -7.80973,-0.20336 -10.7423401,-0.78053 z m 26.3077601,0.59655 c 1.32635,-0.0772 4.38463,-0.35942 6.79618,-0.62714 2.41154,-0.26772 6.35771,-0.89384 8.76925,-1.39138 2.41155,-0.49753 6.55502,-1.53412 9.20772,-2.30353 2.6527,-0.7694 7.09214,-2.32384 9.86541,-3.4543 2.77328,-1.13046 7.35729,-3.27883 10.18668,-4.77416 2.8294,-1.49533 7.76211,-4.53008 10.96157,-6.74389 3.19947,-2.21382 7.69164,-5.66255 9.982605,-7.66386 2.29097,-2.0013 6.23765,-5.87351 8.7704,-8.60491 2.53275,-2.73139 5.91115,-6.7115 7.50755,-8.84469 1.59641,-2.13319 4.19121,-5.93186 5.76621,-8.44149 1.575,-2.50963 3.9572,-6.71896 5.29376,-9.35408 1.33656,-2.63511 3.06223,-6.33111 3.83481,-8.21333 0.77259,-1.88223 2.14971,-5.71259 3.06027,-8.51192 0.91056,-2.79933 2.1561,-7.214 2.76787,-9.81038 0.61176,-2.59637 1.42719,-6.76258 1.81207,-9.25823 0.38488,-2.49565 0.85743,-6.80766 1.0501,-9.58223 0.35031,-5.04468 0.35031,-5.04468 0.41153,1.34348 0.0384,4.01143 -0.19307,7.91604 -0.62223,10.49482 -0.3759,2.25866 -1.1565,6.06169 -1.73467,8.45117 -0.57817,2.38947 -1.84976,6.75453 -2.82575,9.70012 -0.97598,2.9456 -2.6815,7.45858 -3.79004,10.02885 -1.10854,2.57026 -3.20337,6.82921 -4.65519,9.46432 -1.45182,2.63512 -3.92716,6.71993 -5.50077,9.07737 -1.57362,2.35744 -4.28889,6.05345 -6.03394,8.21334 -1.74505,2.1599 -5.21788,6.02579 -7.7174,8.59088 -2.49951,2.56509 -6.32035,6.14308 -8.49074,7.95108 -2.170385,1.80801 -5.704805,4.49055 -7.854265,5.9612 -2.14945,1.47066 -5.84521,3.80537 -8.2128,5.18824 -2.36758,1.38288 -6.52818,3.503 -9.24578,4.71138 -2.71759,1.20838 -6.80212,2.84759 -9.07673,3.64269 -2.27461,0.7951 -6.02347,1.94335 -8.3308,2.55166 -2.30732,0.60831 -5.94743,1.42375 -8.08912,1.81207 -2.49956,0.45322 -6.11083,0.67583 -10.08464,0.62165 -3.40486,-0.0464 -5.10547,-0.14758 -3.77912,-0.2248 z M 23.329975,261.3779 c -0.96462,-0.10751 -3.87598,-0.60737 -6.4697,-1.11081 -2.59371,-0.50344 -6.47384,-1.5132 -8.6225101,-2.24391 -2.14866,-0.73071 -5.05837,-1.93359 -6.46601,-2.67306 -1.40763999,-0.73948 -3.64407,-2.18868 -4.96983,-3.22046 -1.32577,-1.03177 -3.2447,-3.0172 -4.26429,-4.41206 -1.09195,-1.49385 -2.21816,-3.76374 -2.7403899,-5.52331 -0.83889,-2.82649 -0.8866,-4.1947 -0.8866,-25.42996 0,-18.42131 0.1172,-22.911 0.65405,-25.05592 0.35972,-1.43724 1.1718799,-3.67663 1.8047899,-4.97644 0.63292,-1.2998 2.22079,-3.53071 3.5286,-4.95758 1.30781,-1.42687 3.55002,-3.24449 4.98269001,-4.03915 1.43266999,-0.79466 3.94058999,-1.7394 5.57315999,-2.09942 2.349,-0.51802 7.5880301,-0.65737 25.1106701,-0.66792 18.00169,-0.0109 22.59272,-0.13806 24.5506,-0.68025 1.32453,-0.3668 3.69223,-1.3397 5.26156,-2.162 1.78514,-0.93538 4.01057,-2.69082 5.94457,-4.68915 2.01918,-2.08635 3.65041,-4.31813 4.70354,-6.43521 0.88676,-1.78262 1.90981,-4.55462 2.27344,-6.16 0.49104,-2.16791 0.66281,-5.71635 0.66763,-13.79211 l 0.006,-10.87324 10.41349,0.15027 c 10.41349,0.15026 10.41349,0.15026 13.2635,1.55865 1.6392,0.81005 3.751235,2.36088 4.971345,3.65037 1.16674,1.2331 2.82065,3.54232 3.67535,5.13162 0.85471,1.5893 2.11675,4.71069 2.80453,6.93643 0.68778,2.22573 1.7391,6.57207 2.33626,9.65852 0.59715,3.08645 1.31331,7.97306 1.59145,10.85914 0.28624,2.97014 0.38182,7.29394 0.22024,9.96314 -0.15701,2.59366 -0.59039,6.38852 -0.96307,8.43302 -0.37267,2.04451 -1.36456,5.8771 -2.20419,8.51687 -0.83964,2.63977 -2.40572,6.69782 -3.4802,9.01788 -1.3823,2.98475 -2.68832,4.99833 -4.46611,6.88571 -1.77595,1.88543 -3.283775,2.98974 -5.143305,3.76689 -2.63077,1.09948 -2.63077,1.09948 -34.74817,1.2277 -32.1174,0.12822 -32.1174,0.12822 -32.1174,2.16741 0,2.03919 0,2.03919 19.97874,2.03919 h 19.97874 l -0.1383,10.84886 c -0.1383,10.84886 -0.1383,10.84886 -1.56836,13.86965 -0.98462,2.07988 -2.31982,3.88697 -4.28666,5.80168 -1.97215,1.91989 -4.10873,3.40898 -6.90073,4.80948 -2.22427,1.11571 -5.94739,2.56082 -8.2736,3.21134 -2.3262,0.65052 -5.87775,1.4925 -7.89233,1.87106 -2.01457,0.37857 -6.42518,0.76351 -9.80134,0.85543 -3.37617,0.0919 -6.92771,0.0792 -7.89233,-0.0284 z m 19.47031,-2.43564 c 2.50941,-0.55844 6.02681,-1.51277 7.81644,-2.12072 1.78962,-0.60795 4.72224,-1.86096 6.51693,-2.78446 1.79469,-0.9235 4.32013,-2.65955 5.61209,-3.85788 1.29196,-1.19834 2.9555,-3.16237 3.69676,-4.3645 0.74125,-1.20214 1.65353,-3.40748 2.02728,-4.90076 0.49382,-1.97301 0.67955,-4.99473 0.67955,-11.05603 v -8.34097 l -19.84044,-0.11873 -19.84044,-0.11872 v -3.19408 -3.19407 l 32.66547,-0.22815 c 32.66548,-0.22815 32.66548,-0.22815 34.63856,-1.32065 1.0852,-0.60088 2.61518,-1.60125 3.399955,-2.22306 0.78479,-0.6218 2.31212,-2.5163 3.39408,-4.21 1.08196,-1.69369 2.75317,-5.14287 3.71379,-7.66483 0.96062,-2.52196 2.15046,-6.0905 2.6441,-7.9301 0.49364,-1.83959 1.1885,-5.19271 1.54413,-7.45138 0.35564,-2.25867 0.64379,-6.468 0.64034,-9.35408 -0.003,-2.88607 -0.28701,-7.30074 -0.63014,-9.81037 -0.34313,-2.50964 -1.03908,-6.55649 -1.54655,-8.99301 -0.50747,-2.43653 -1.3823,-5.83639 -1.94408,-7.55524 -0.56177,-1.71886 -1.58507,-4.34534 -2.27399,-5.83663 -0.75089,-1.6254 -2.39733,-3.91612 -4.11058,-5.71909 -2.146845,-2.25929 -3.512565,-3.26937 -5.488745,-4.05947 -2.35414,-0.94121 -3.58283,-1.07464 -11.68443,-1.26885 l -9.05365,-0.21703 -0.1746,11.57725 c -0.16701,11.07378 -0.22409,11.72068 -1.31258,14.87546 -0.62589,1.81402 -1.68566,4.27802 -2.35504,5.47556 -0.66938,1.19754 -2.6144,3.63627 -4.32227,5.41941 -2.38298,2.48801 -3.97205,3.67465 -6.83215,5.10193 -2.04981,1.02292 -4.89769,2.07932 -6.32862,2.34756 -1.61938,0.30357 -10.89669,0.48771 -24.57141,0.48771 -18.44095,0 -22.3894701,0.11374 -24.5830001,0.70817 -1.4373,0.3895 -3.47643,1.23448 -4.53137999,1.87774 -1.05496,0.64327 -2.71622001,1.91592 -3.69168001,2.82813 -0.97546,0.9122 -2.50589,2.8333 -3.40095,4.26909 -0.89506,1.43579 -1.95806,3.8998 -2.36222,5.47556 -0.65142,2.53974 -0.71956,5.53304 -0.6002,26.3643 0.13465,23.49927 0.13465,23.49927 1.18642,25.70417 0.57847,1.2127 2.02305,3.31087 3.21018,4.66261 1.18713,1.35174 3.3775,3.28874 4.86748001,4.30443 1.48998999,1.0157 4.24754999,2.46583 6.12791999,3.22252 1.88036,0.75668 5.4579601,1.88718 7.9502201,2.51221 2.49226,0.62503 5.68918,1.32473 7.10426,1.5549 1.41508,0.23016 5.92712,0.3557 10.02674,0.27898 5.64484,-0.10563 8.5612,-0.38591 12.01645,-1.15483 z m 7.10913,-11.48532 c -0.81519,-0.24949 -1.9578,-0.77794 -2.53913,-1.17433 -0.58133,-0.3964 -1.54214,-1.5823 -2.13514,-2.63534 -0.77132,-1.36968 -1.07819,-2.59019 -1.07819,-4.28826 0,-1.48091 0.33307,-3.05307 0.88559,-4.18014 0.48707,-0.99358 1.62159,-2.30626 2.52116,-2.91707 0.89956,-0.61081 2.34406,-1.24376 3.20999,-1.40655 0.86593,-0.16279 2.39766,-0.0653 3.40384,0.21667 1.00619,0.28195 2.50537,1.13027 3.33152,1.88514 0.82615,0.75487 1.73365,2.10266 2.01666,2.99508 0.28302,0.89242 0.43185,2.81275 0.33074,4.2674 -0.13823,1.98876 -0.48237,3.05214 -1.38739,4.28694 -0.66196,0.90317 -1.73596,1.92564 -2.38667,2.27214 -0.6507,0.34651 -1.97234,0.74294 -2.93695,0.88097 -0.96462,0.13803 -2.42083,0.0468 -3.23603,-0.20265 z m 5.24378,-1.78399 c 0.96447,-0.51205 2.13988,-1.59005 2.61203,-2.39556 0.47215,-0.8055 0.98123,-2.14075 1.1313,-2.9672 0.17233,-0.94906 -0.003,-2.25476 -0.47633,-3.54415 -0.43625,-1.18876 -1.37502,-2.53826 -2.24746,-3.23077 -0.86994,-0.69053 -2.29216,-1.28239 -3.39131,-1.41132 -1.37424,-0.1612 -2.38277,0.038 -3.67995,0.72664 -0.98364,0.52222 -2.23889,1.70974 -2.79234,2.64167 -0.67713,1.14018 -1.00543,2.39748 -1.00543,3.85049 0,1.53536 0.30879,2.63093 1.07086,3.79935 0.58897,0.90303 1.86009,2.0512 2.82471,2.5515 0.96462,0.50029 2.30431,0.90979 2.97709,0.90999 0.67278,2e-4 2.01236,-0.41859 2.97683,-0.93064 z m -89.80354,-30.34429 c -1.26255,-0.35385 -3.27485,-1.1598 -4.47178,-1.791 -1.19692,-0.6312 -3.28901,-2.33017 -4.64907,-3.7755 -1.6977,-1.80412 -3.07471,-3.91516 -4.39288,-6.73453 -1.1187,-2.39274 -2.3785,-6.10626 -3.01854,-8.89779 -0.60419,-2.63511 -1.43759,-6.74178 -1.85201,-9.12593 -0.51626,-2.96997 -0.75149,-6.70533 -0.74711,-11.86371 0.004,-5.01086 0.25799,-9.052 0.75866,-12.08299 0.41375,-2.50475 1.1569,-6.30342 1.65144,-8.44148 0.49454,-2.13807 1.6974,-5.63273 2.67302,-7.76591 1.38481,-3.02786 2.45812,-4.57908 4.89366,-7.0726 2.07421,-2.12359 4.11242,-3.69305 6.08153,-4.6829 1.62896,-0.81886 4.19387,-1.79115 5.6998,-2.16067 2.26501,-0.55576 7.75678,-0.673 31.78622991,-0.67858 29.04815009,-0.007 29.04815009,-0.007 29.04815009,-2.06008 0,-2.05333 0,-2.05333 -19.9500501,-2.05333 H -11.089355 l 0.008,-10.38075 c 0.005,-7.15945 0.19922,-11.3215 0.62507,-13.41237 0.3396,-1.66739 1.0104699,-3.823393 1.4908299,-4.791113 0.48035,-0.96772 1.72821,-2.61068 2.77301,-3.65103 1.04481,-1.04035 2.77805,-2.34901 3.85165,-2.90813 1.07359,-0.55912 3.04667001,-1.4086 4.38462,-1.88773 1.33795,-0.47913 4.50438,-1.25908 7.0365,-1.73323 2.5321201,-0.47414 7.4648301,-1.11038 10.9615701,-1.41385 3.82995,-0.33239 9.16579,-0.43944 13.42047,-0.26926 3.88452,0.15538 9.39741,0.601 12.25085,0.99027 2.85345,0.38926 6.58099,1.1964 8.28343,1.79363 1.70244,0.59723 4.00896,1.61967 5.1256,2.2721 1.11664,0.65243 2.97687,2.05336 4.13384,3.11319 1.15697,1.05983 2.83423,3.10341 3.72726,4.54129 0.89302,1.43788 1.9543,3.903593 2.35839,5.479353 0.6519,2.5421 0.71955,5.56511 0.6002,26.82059 -0.13384,23.83551 -0.13961,23.9687 -1.15079,26.57435 -0.55895,1.44033 -1.6604,3.59634 -2.44766,4.79112 -0.78725,1.19478 -2.59062,3.14886 -4.00747,4.3424 -1.41686,1.19354 -3.66965,2.62642 -5.00622,3.18418 -2.3796,0.99302 -2.9405,1.01974 -26.98403,1.28538 -23.6448201,0.26124 -24.6594301,0.30788 -27.4039201,1.25997 -1.5675,0.54377 -3.86776999,1.60021 -5.11171,2.34764 -1.24393,0.74743 -3.41432,2.47358 -4.82309,3.8359 -1.40876,1.36232 -3.2277299,3.62933 -4.0421599,5.0378 -0.81442,1.40847 -1.98253,3.94512 -2.59579,5.637 -1.06761,2.94536 -1.12318,3.58542 -1.30682,15.05393 l -0.1918,11.97779 -8.61244,-0.03 c -5.95093,-0.0207 -9.32184,-0.22885 -10.90799,-0.67339 z m 18.7379,-11.52072 c 0,-8.22193 0.16185,-11.51498 0.66718,-13.57482 0.36694,-1.49577 1.28576,-4.04215 2.04181,-5.65863 0.91512,-1.95658 2.48758,-4.11113 4.7039899,-6.4453 2.32994,-2.45371 4.2507,-3.98701 6.3986,-5.10783 1.68808001,-0.88088 3.85847,-1.86997 4.82309,-2.19799 1.31845,-0.44834 7.8495401,-0.66066 26.3077601,-0.85525 24.32758,-0.25646 24.57706,-0.26853 27.06402,-1.30964 1.38055,-0.57793 3.64961,-1.92378 5.04236,-2.99076 1.39274,-1.06698 3.27028,-3.05617 4.1723,-4.42041 0.90201,-1.36425 2.08585,-3.71245 2.63073,-5.21823 0.97086,-2.68294 0.99349,-3.18105 1.12976,-24.86816 0.0971,-15.46205 -0.014,-22.94984 -0.36904,-24.84995 -0.27944,-1.49576 -1.10078,-3.94143 -1.82518,-5.43484 -0.7244,-1.493403 -2.33411,-3.773183 -3.57713,-5.066173 -1.24302,-1.293 -3.22298,-2.93786 -4.39992,-3.65525 -1.17694,-0.7174 -3.38022,-1.77289 -4.89619,-2.34553 -1.51597,-0.57265 -4.99245,-1.40806 -7.72553,-1.85646 -3.87726,-0.63613 -7.57067,-0.81434 -16.80771,-0.811 -9.29615,0.003 -12.91568,0.18244 -16.85443,0.83385 -2.7587701,0.45626 -6.7006001,1.33761 -8.7596301,1.95856 -2.05903,0.62096 -4.70463999,1.6733 -5.87914,2.33854 -1.17449,0.66524 -2.98577,2.19376 -4.02506,3.39671 -1.03928,1.20295 -2.2407,3.16133 -2.66981,4.351953 -0.6499,1.80321 -0.80872,4.05014 -0.95097,13.45343 l -0.17076,11.28866 19.8741301,0.11875 19.87413,0.11874 0.12914,3.05662 0.12913,3.05662 -29.94460009,0.16548 c -27.09047991,0.1497 -30.19307991,0.24249 -32.55150991,0.9735 -1.43379,0.44442 -3.51721,1.28808 -4.62981,1.87481 -1.1126,0.58673 -3.03174,1.89665 -4.26476,2.91094 -1.23301,1.01428 -3.12418,3.13535 -4.2026,4.71347 -1.07842,1.57812 -2.45183,4.10132 -3.05202,5.6071 -0.6002,1.50578 -1.51013,4.68844 -2.02207,7.07259 -0.51193,2.38415 -1.22445,6.38816 -1.58337,8.89779 -0.35893,2.50963 -0.65375,6.89794 -0.65517,9.75181 -0.001,2.85387 0.30333,7.37121 0.67722,10.03853 0.3739,2.66732 1.24361,7.25279 1.93269,10.18995 0.68908,2.93715 1.9658,6.8828 2.83716,8.76812 0.91759,1.98533 2.60912,4.5798 4.01957,6.16523 1.3394,1.50555 3.10578,3.16862 3.92529,3.6957 0.8195,0.52709 2.5311,1.34821 3.80354,1.82472 1.97015,0.73778 3.59885,0.86882 10.97317,0.88284 l 8.65964,0.0165 z M 6.2299249,115.39755 c -0.24115,-0.07 -0.97744,-0.25078 -1.63619,-0.40184 -0.65875,-0.15105 -1.92132,-0.93581 -2.8057,-1.74389 -0.88438999,-0.80808 -1.87454999,-2.13319 -2.20035999,-2.94468 -0.32581,-0.81149 -0.59238001,-2.3412 -0.59238001,-3.39936 0,-1.05816 0.41852001,-2.82364 0.93004001,-3.92329 0.5232,-1.12474 1.62607999,-2.47646 2.52115999,-3.090013 0.87512,-0.59986 2.43261,-1.22904 3.4611,-1.39818 1.30718,-0.21498 2.4557,-0.0747 3.81611,0.46593 1.0703801,0.42541 2.5365001,1.473193 3.2580401,2.328413 0.72155,0.85523 1.51888,2.33056 1.77184,3.27854 0.25296,0.94797 0.45994,2.03158 0.45994,2.40803 0,0.37644 -0.20379,1.44806 -0.45287,2.38138 -0.24908,0.93332 -0.96206,2.3267 -1.5844,3.09639 -0.62235,0.7697 -1.65063,1.67111 -2.28508,2.00314 -0.63445,0.33203 -1.8441301,0.70784 -2.6881701,0.83515 -0.84404,0.12731 -1.73193,0.17423 -1.97308,0.10428 z m 3.70748,-2.02186 c 0.9347001,-0.49625 2.1600101,-1.57425 2.7229201,-2.39556 0.7836,-1.14332 1.02347,-2.10036 1.02347,-4.08354 0,-1.90448 -0.23934,-2.92385 -0.90402,-3.85033 -0.49721,-0.69304 -1.41188,-1.65468 -2.03261,-2.13697 -0.62073,-0.48228 -2.0197001,-0.981413 -3.1088301,-1.109163 -1.52014,-0.17831 -2.37224,-4.5e-4 -3.6674,0.765503 -0.92795,0.54878 -2.05934,1.52159 -2.51421,2.1618 -0.45487,0.64021 -0.92314999,2.05143 -1.04061999,3.13604 -0.11747,1.08461 -0.0906,2.48175 0.0596,3.10475 0.15025,0.623 0.80605999,1.79177 1.45734999,2.59726 0.65129,0.8055 1.78587,1.73729 2.52129,2.07065 0.73542,0.33335 1.88758,0.61414 2.56037,0.62396 0.67278,0.01 1.98799,-0.38816 2.9227,-0.8844 z m -91.8307399,48.81339 c 0.0877,-5.99246 0.34088,-9.04815 1.01451,-12.24466 0.49369,-2.34271 1.43107,-6.24404 2.08304,-8.66963 0.65198,-2.42559 2.15827,-7.02971 3.3473,-10.23137 1.18904,-3.20167 3.21425,-7.9572 4.50048,-10.56784 1.28622,-2.61064 3.5326,-6.72364 4.99196,-9.14 1.45935,-2.41636 4.02267,-6.28484 5.69625,-8.59662 1.67359,-2.31178 4.63212,-6.009543 6.57452,-8.217233 1.94239,-2.20769 5.26732,-5.66786 7.38873,-7.68926 2.12141,-2.0214 5.67464,-5.10026 7.89607,-6.84192 2.22143,-1.74166 5.91755,-4.39539 8.2136,-5.89719 2.29606,-1.50179 6.03525,-3.72534 8.30931,-4.94122 2.27407,-1.21587 5.68104,-2.8853 7.57106,-3.70982 1.89001,-0.82453 5.4094699,-2.19451 7.8210099,-3.04439 2.41155,-0.84989 6.25906001,-2.03719 8.55003,-2.63845 2.29097,-0.60126 5.94116,-1.41326 8.1115501,-1.80444 2.4803,-0.44704 6.22642,-0.68725 10.08465,-0.64666 6.13848,0.0646 6.13848,0.0646 1.4983,0.41205 -2.5521,0.1911 -6.2023,0.58585 -8.11156,0.87721 -1.90926,0.29136 -5.6854101,1.03826 -8.3914501,1.65977 -2.70603,0.62151 -7.44143,2.0149 -10.5231,3.0964 -3.08167,1.08151 -6.8855499,2.53384 -8.4530499,3.22741 -1.56751,0.69356 -4.60469,2.17787 -6.74929,3.29845 -2.14461,1.12059 -5.69615,3.18384 -7.89233,4.585 -2.19618,1.40117 -6.26209,4.30125 -9.03537,6.44462 -2.86073,2.21097 -7.80717,6.7684 -11.4327,10.53359 -3.5147,3.6501 -7.68194,8.38188 -9.26052,10.515063 -1.57857,2.13319 -4.10756,5.81165 -5.61996,8.17436 -1.51241,2.36272 -3.99335,6.77739 -5.5132,9.81038 -1.51985,3.03299 -3.6728,7.87211 -4.78433,10.75359 -1.11153,2.88149 -2.69013,7.63539 -3.508,10.56422 -0.81787,2.92884 -1.87825,7.44993 -2.35641,10.04688 -0.47815,2.59694 -1.08237,6.77505 -1.34272,9.28468 -0.26034,2.50963 -0.54578,5.6923 -0.6343,7.07259 -0.0885,1.3803 -0.10836,-1.0837 -0.0441,-5.47556 z m 223.046315,4.92856 c -0.0527,-1.68114 -0.3992,-5.46565 -0.77009,-8.41 -0.37088,-2.94436 -1.0704,-7.21554 -1.55449,-9.49152 -0.48408,-2.27599 -1.27573,-5.57549 -1.75921,-7.33223 -0.48349,-1.75674 -1.58517,-5.24741 -2.44818,-7.75704 -0.86301,-2.50963 -2.7941,-7.2323 -4.29131,-10.49482 -1.49722,-3.26252 -3.86317,-7.88252 -5.25768,-10.26667 -1.39451,-2.38415 -4.22949,-6.69615 -6.29996,-9.58223 -2.08815,-2.91074 -6.60423,-8.208793 -10.14164,-11.897703 -3.50743,-3.65766 -8.05427,-7.99439 -10.104085,-9.63718 -2.04981,-1.64279 -5.58451,-4.27463 -7.85487,-5.84855 -2.27037,-1.57392 -6.5125,-4.15577 -9.42695,-5.73744 -2.91446,-1.58167 -7.51033,-3.79955 -10.21304,-4.92862 -2.70272,-1.12908 -6.90601,-2.67304 -9.34065,-3.43103 -2.43464,-0.75799 -6.83315,-1.88762 -9.77447,-2.51027 -2.94132,-0.62266 -7.32094,-1.35031 -9.73248,-1.61699 -2.41155,-0.26669 -5.46983,-0.54806 -6.79618,-0.62527 -1.32635,-0.0772 0.37426,-0.17837 3.77912,-0.22479 3.97381,-0.0542 7.58508,0.16842 10.08464,0.62164 2.14169,0.38833 5.8138,1.2122 8.16025,1.83083 2.34644,0.61863 6.09338,1.76183 8.32652,2.54043 2.23315,0.7786 6.28568,2.40937 9.00562,3.62393 2.71994,1.21456 6.88246,3.33973 9.25004,4.72261 2.36759,1.38287 6.06335,3.71758 8.2128,5.18824 2.14946,1.47065 5.68388,4.15319 7.854265,5.9612 2.17039,1.808 5.99721,5.38599 8.50405,7.95108 2.50683,2.56509 5.98182,6.43421 7.72218,8.59804 1.74037,2.163823 4.44966,5.859833 6.02064,8.213333 1.57097,2.35351 4.04416,6.43511 5.49598,9.07022 1.45182,2.63511 3.54665,6.89406 4.65519,9.46432 1.10854,2.57027 2.81406,7.08325 3.79004,10.02884 0.97599,2.9456 2.24891,7.31066 2.82871,9.70013 0.5798,2.38948 1.36948,6.29517 1.75484,8.67932 0.47434,2.93461 0.65471,6.32458 0.5584,10.49482 -0.0782,3.388 -0.18534,4.78452 -0.238,3.10337 z"
       id="path2" /></g></svg>
